<svg width="57" height="70" viewBox="0 0 57 70" fill="none" xmlns="http://www.w3.org/2000/svg">
<g clip-path="url(#clip0)">
<path d="M1.19995 32.34C2.69995 32.27 3.94996 32.9899 5.39996 32.4399C6.92225 31.8834 8.23073 30.8618 9.13995 29.52C9.49995 28.97 9.77995 28.37 10.14 27.83C10.595 27.0846 11.1578 26.4107 11.81 25.83" fill="#AED082"/>
<path d="M11.8201 25.78C10.4375 25.3955 9.0044 25.2235 7.57007 25.27C6.54223 25.2978 5.56457 25.7204 4.84006 26.45C4.29087 27.2385 3.86281 28.1048 3.57007 29.02" fill="#AED082"/>
<path d="M56.0899 20.7C54.4799 20.29 53.3699 19.12 51.6599 19.24C49.8536 19.3425 48.1254 20.0107 46.7199 21.15C46.1699 21.62 45.6699 22.15 45.1099 22.63C44.3875 23.2964 43.5682 23.8493 42.6799 24.27" fill="#AED082"/>
<path d="M42.6799 24.27C44.0222 25.1282 45.4897 25.7726 47.0299 26.18C48.1335 26.4833 49.3114 26.3508 50.3199 25.8099C51.1533 25.1405 51.8873 24.356 52.4999 23.48" fill="#AED082"/>
<path d="M0 12.5599C0.46 13.6599 0.260007 14.8 1.07001 15.73C1.91129 16.7129 3.03604 17.4115 4.29001 17.73C4.79001 17.84 5.28999 17.8899 5.82999 18.0099C6.52886 18.1331 7.20387 18.3659 7.82999 18.7" fill="#AED082"/>
<path d="M7.81 18.7C7.7263 17.5592 7.46307 16.4387 7.03 15.38C6.73089 14.6189 6.14583 14.0052 5.39999 13.67C4.44175 13.4845 3.46523 13.4106 2.48999 13.45" fill="#AED082"/>
<path d="M20.48 22.86C21.27 23.75 21.48 24.8599 22.48 25.4999C23.5895 26.1656 24.8811 26.4632 26.17 26.35C26.69 26.29 27.17 26.16 27.72 26.11C28.416 26.0044 29.124 26.0044 29.82 26.11" fill="#AED082"/>
<path d="M29.8601 26.15C29.4086 25.1034 28.7943 24.1348 28.0401 23.28C27.5099 22.6595 26.7618 22.2658 25.9501 22.1801C24.9821 22.3252 24.033 22.5767 23.1201 22.9301" fill="#AED082"/>
<path d="M30.7999 0.0699463C30.7999 1.67995 30.0099 2.99995 30.5599 4.56995C31.1068 6.21932 32.1557 7.65643 33.5599 8.67999C34.1399 9.07999 34.7799 9.39994 35.3499 9.80994C36.156 10.3144 36.8809 10.9382 37.4999 11.66" fill="#AED082"/>
<path d="M37.53 11.66C37.9878 10.1873 38.2138 8.65227 38.2 7.11005C38.2116 5.99467 37.7883 4.91861 37.02 4.11005C35.9091 3.40415 34.7215 2.82706 33.48 2.39001" fill="#AED082"/>
<path d="M54.1601 0C52.5301 0.57 50.8901 0.190039 49.4801 1.29004C47.9765 2.41931 46.8672 3.99397 46.3101 5.79004C46.0901 6.52004 45.9801 7.29001 45.7601 8.01001C45.5186 9.00652 45.1275 9.9607 44.6001 10.84" fill="#AED082"/>
<path d="M44.5901 10.84C46.2511 10.8044 47.8969 10.5143 49.4701 9.98004C50.6002 9.60123 51.5416 8.80292 52.1001 7.75C52.5501 6.75 52.5101 4.65004 52.6601 3.54004" fill="#AED082"/>
<path d="M49.3799 44.29C48.8699 42.64 49.2999 41.0199 48.2599 39.5599C47.1807 38.0183 45.6454 36.8537 43.8699 36.23C43.1499 35.99 42.3899 35.85 41.6799 35.6C40.6907 35.3257 39.7497 34.9007 38.8899 34.34" fill="#AED082"/>
<path d="M38.89 34.34C38.8634 36.0025 39.0962 37.6591 39.58 39.2499C39.9123 40.3921 40.6714 41.3625 41.7 41.96C42.7 42.44 44.79 42.48 45.89 42.67" fill="#AED082"/>
<path d="M16.5901 12.3199C15.9801 13.0399 15.1001 13.32 14.7401 14.22C14.3366 15.1667 14.2422 16.2165 14.4701 17.22C14.5701 17.63 14.7301 18.02 14.8201 18.42C14.9832 18.9544 15.0608 19.5113 15.0501 20.0699" fill="#AED082"/>
<path d="M15.02 20.06C15.7953 19.5897 16.4935 19.0028 17.09 18.32C17.5176 17.8317 17.743 17.1987 17.72 16.55C17.5064 15.805 17.2077 15.0869 16.83 14.41" fill="#AED082"/>
<path d="M9.71011 20.67C10.3081 20.6198 10.9102 20.65 11.5001 20.76C12.0986 20.8634 12.685 21.0275 13.2501 21.2499C14.4035 21.7205 15.461 22.3984 16.3701 23.2499C16.8257 23.6689 17.2471 24.1238 17.6301 24.61C18.0012 25.0908 18.3354 25.5989 18.6301 26.13C18.7801 26.4 18.9401 26.6699 19.0701 26.9399C19.2001 27.2099 19.3401 27.49 19.4501 27.78C19.578 28.0573 19.6915 28.3409 19.7901 28.63C19.8901 28.91 20.0001 29.2 20.0801 29.49L20.5601 31.1C20.7079 31.6118 20.8815 32.1157 21.0801 32.61C21.0801 32.74 21.1601 32.87 21.2201 32.99L21.3801 33.35C21.4801 33.59 21.6001 33.83 21.7001 34.08L22.0701 34.78L22.2501 35.13L22.4601 35.46L22.6701 35.79L22.7801 35.96L22.8901 36.11L23.3701 36.74L23.8901 37.33L24.4601 37.88C24.6601 38.04 24.8601 38.23 25.0801 38.38C25.2966 38.5448 25.5238 38.6952 25.7601 38.83C26.2336 39.123 26.7405 39.3581 27.2701 39.53V39.71C26.6626 39.792 26.045 39.7581 25.4501 39.61C25.1513 39.5432 24.8573 39.4563 24.5701 39.35C24.2807 39.2412 23.997 39.1177 23.7201 38.98L22.9101 38.51L22.1601 37.95C21.9301 37.75 21.7101 37.53 21.4801 37.32C21.4187 37.2719 21.3618 37.2183 21.3101 37.16L21.1501 36.99L20.8501 36.64L20.5501 36.28C20.4501 36.16 20.3701 36.03 20.2801 35.91L19.7501 35.14C19.6001 34.88 19.4601 34.61 19.3101 34.34L19.0901 33.9399C19.0201 33.7999 18.9601 33.66 18.9001 33.53C18.6483 32.9796 18.428 32.4153 18.2401 31.84C18.0601 31.28 17.8701 30.67 17.7301 30.18C17.6601 29.92 17.5801 29.67 17.4901 29.42C17.4001 29.17 17.3201 28.92 17.2301 28.67C17.0501 28.17 16.8301 27.67 16.6101 27.21C16.1467 26.2699 15.5799 25.3844 14.9201 24.57C14.2552 23.7423 13.4776 23.0119 12.6101 22.4C11.6927 21.7496 10.6809 21.2437 9.61011 20.9L9.71011 20.67Z" fill="#4356B7"/>
<path d="M39.0701 14.04C39.4978 15.583 39.7461 17.1702 39.8101 18.77C39.8884 20.3786 39.8315 21.9909 39.6401 23.59C39.2556 26.7657 38.3714 29.8606 37.0201 32.76C36.3722 34.1522 35.613 35.4898 34.7501 36.76C33.9163 38.0021 32.9974 39.185 32.0001 40.3C31.4901 40.82 31.0001 41.38 30.4801 41.87C29.9601 42.36 29.4301 42.87 28.8801 43.31C28.3301 43.75 27.8001 44.24 27.2301 44.64C26.6601 45.04 26.1001 45.48 25.5201 45.84L22.3001 47.94C21.2401 48.57 20.3001 49.37 19.3001 50.09C19.0601 50.28 18.7901 50.44 18.5601 50.65L17.8701 51.26C17.4001 51.67 16.9401 52.08 16.4601 52.48L15.1601 53.81L14.5001 54.47L13.8901 55.2L13.2901 55.92L12.9801 56.28L12.7001 56.67L11.5901 58.25L10.5901 59.9301L9.69011 61.7C9.45011 62.33 9.1501 62.95 8.9301 63.6C8.7101 64.25 8.48011 64.91 8.31011 65.6C7.92395 67.0084 7.68269 68.4526 7.59011 69.91L7.19011 70C6.71271 68.4484 6.47333 66.8334 6.48012 65.21C6.48012 64.39 6.5301 63.58 6.5801 62.76C6.6301 61.94 6.82009 61.16 6.95009 60.34C7.08009 59.52 7.3301 58.7701 7.5501 57.9901L8.3601 55.7401C8.6801 55.0201 9.0301 54.33 9.3601 53.61C9.4501 53.44 9.53011 53.26 9.62011 53.09L9.92009 52.6L10.5201 51.6L11.1201 50.6C11.3401 50.29 11.5701 50 11.7901 49.7L13.1701 47.94C13.6601 47.4 14.1701 46.88 14.6701 46.36L15.4201 45.57C15.6701 45.31 15.9501 45.1 16.2201 44.86C17.2588 43.9193 18.3578 43.0474 19.5101 42.25C20.6201 41.48 21.8401 40.66 22.8201 40.05C23.3401 39.73 23.8201 39.38 24.3401 39.05C24.8601 38.72 25.3401 38.33 25.8201 37.96C26.8201 37.22 27.7101 36.4 28.6201 35.57C30.4497 33.838 32.0707 31.8982 33.4501 29.79C34.9194 27.5543 36.0925 25.1375 36.9401 22.6C37.8805 19.8501 38.4587 16.9893 38.6601 14.09L39.0701 14.04Z" fill="#4356B7"/>
</g>
<defs>
<clipPath id="clip0">
<rect width="56.08" height="70" fill="white"/>
</clipPath>
</defs>
</svg>
