<svg width="65" height="87" viewBox="0 0 65 87" fill="none" xmlns="http://www.w3.org/2000/svg">
<g clip-path="url(#clip0)">
<path d="M41.1873 24.7703C40.1023 24.0179 39.6249 22.846 38.2939 22.4698C36.9401 22.0288 35.4813 22.0288 34.1274 22.4698C33.5777 22.6579 33.0569 22.9328 32.5216 23.1064C31.8021 23.4048 31.0409 23.5902 30.2648 23.6562" fill="#AED082"/>
<path d="M30.2937 23.6852C31.0535 24.6888 31.9608 25.5717 32.9846 26.304C33.7136 26.8257 34.6125 27.053 35.5018 26.9406C36.5231 26.5507 37.4944 26.0407 38.3952 25.4214" fill="#AED082"/>
<path d="M49.0428 55.1689C49.0428 54.1706 49.4913 53.3169 49.1152 52.2752C48.7393 51.2467 48.0514 50.3614 47.1477 49.7432C46.7715 49.4972 46.3665 49.3091 46.0048 49.0631C45.4701 48.7595 44.9828 48.3793 44.5581 47.9346" fill="#AED082"/>
<path d="M44.6161 48.007C44.353 48.9481 44.2359 49.924 44.2689 50.9007C44.2857 51.5975 44.5707 52.2609 45.0645 52.7527C45.7779 53.1711 46.5346 53.5107 47.3214 53.7655" fill="#AED082"/>
<path d="M37.2814 60.2618C37.8166 59.5384 38.6412 59.2346 38.9306 58.3665C39.2701 57.4364 39.3005 56.4215 39.0174 55.4727C38.9016 55.0965 38.728 54.7349 38.6123 54.3587C38.4349 53.8605 38.3326 53.3388 38.3085 52.8105" fill="#AED082"/>
<path d="M38.3086 52.8829C37.5987 53.371 36.9691 53.9664 36.4423 54.6481C36.0648 55.1327 35.8887 55.7443 35.9505 56.3554C36.1947 57.0493 36.515 57.7141 36.9053 58.3376" fill="#AED082"/>
<path d="M22.0043 32.4966C22.1874 33.4988 22.5036 34.472 22.9446 35.3903C23.4932 36.2187 24.3028 36.84 25.2449 37.1555C25.5921 37.2423 25.9537 37.2712 26.3009 37.3725C26.7906 37.4797 27.2565 37.6758 27.6753 37.9512" fill="#AED082"/>
<path d="M27.6752 37.9657C27.526 36.9228 27.2641 35.8992 26.894 34.9128C26.6822 34.2706 26.2523 33.7229 25.6788 33.3647C25.0378 33.2241 24.3788 33.185 23.7257 33.2489" fill="#AED082"/>
<path d="M17.4037 28.8794C18.3585 28.373 19.4146 28.2862 20.1669 27.5773C20.9147 26.9276 21.4239 26.0465 21.6136 25.0742C21.6136 24.7269 21.6136 24.3652 21.7149 24.0035C21.7508 23.5006 21.8834 23.0093 22.1054 22.5566" fill="#AED082"/>
<path d="M22.1633 22.571C21.1609 22.8479 20.1909 23.2311 19.2699 23.7141C18.6276 24.0041 18.1132 24.5185 17.8232 25.1609C17.7582 25.8148 17.8022 26.4748 17.9534 27.1142" fill="#AED082"/>
<path d="M34.793 44.1149C35.3138 44.737 35.5308 45.4894 36.1529 45.9379C36.7362 46.4026 37.4614 46.6529 38.2071 46.6469C38.4675 46.6469 38.728 46.5745 39.0029 46.5601C39.3764 46.524 39.7533 46.5534 40.1168 46.6469" fill="#AED082"/>
<path d="M40.1169 46.6469C39.7628 45.9436 39.3361 45.2792 38.8438 44.6647C38.5408 44.2596 38.1059 43.973 37.6141 43.8545C37.1158 43.907 36.6281 44.0337 36.1674 44.2306" fill="#AED082"/>
<path d="M23.017 60.1173C23.0382 59.5273 23.1404 58.9431 23.3208 58.381C23.506 57.8153 23.7433 57.2679 24.0297 56.7461C24.624 55.6899 25.4031 54.749 26.3299 53.9681C26.7813 53.5756 27.2653 53.2223 27.7766 52.9119C28.2954 52.5971 28.837 52.3214 29.3969 52.0872L30.236 51.7544L31.104 51.494C31.3789 51.4216 31.6682 51.3348 31.972 51.277C32.2758 51.2191 32.5507 51.1467 32.84 51.1033L34.4603 50.8429C34.9819 50.7661 35.4987 50.6598 36.0083 50.5246C36.1355 50.504 36.2611 50.475 36.3844 50.4378L36.7606 50.3365C37.0065 50.3365 37.2524 50.1773 37.5128 50.1194L38.2362 49.8445L38.5979 49.7143L38.9451 49.5407L39.2923 49.3815L39.4659 49.3092L39.6395 49.2079L40.305 48.8318L40.9415 48.3977L41.5491 47.9202C41.7372 47.7321 41.9398 47.5585 42.1134 47.3704C42.287 47.1823 42.475 46.9797 42.6486 46.7772C42.9923 46.3324 43.2791 45.8463 43.5022 45.3303H43.6902C43.6804 45.9286 43.5679 46.5208 43.3575 47.081C43.258 47.3647 43.137 47.6404 42.9958 47.9057C42.8511 48.1806 42.692 48.4266 42.5329 48.6871L41.9687 49.4105L41.3321 50.0616L40.6233 50.6548L40.4497 50.7995L40.2616 50.9297L39.8854 51.1757L39.4948 51.4216L39.1042 51.6387L38.2941 52.0438L37.455 52.3765L37.0354 52.5357C36.9007 52.5942 36.76 52.6379 36.6159 52.6659C36.0511 52.8445 35.4762 52.9895 34.8943 53.1L33.2162 53.3893C32.9558 53.3893 32.6953 53.4762 32.4494 53.5196L31.6827 53.6787C31.1763 53.7945 30.6844 53.9537 30.236 54.0984C29.2602 54.4285 28.3239 54.8652 27.4439 55.4005C26.5577 55.95 25.7499 56.6168 25.0423 57.3827C24.2974 58.1763 23.6779 59.079 23.205 60.0594L23.017 60.1173Z" fill="#4356B7"/>
<path d="M28.8471 25.3925C29.7015 26.7058 30.4006 28.1138 30.9304 29.5884C31.4743 31.0754 31.8952 32.6046 32.189 34.1605C32.7565 37.2397 32.8346 40.3892 32.4205 43.4928C32.2286 44.9918 31.9141 46.4726 31.4801 47.9202C31.0712 49.3306 30.5586 50.7088 29.9466 52.0437C29.6284 52.6804 29.339 53.3459 28.9918 53.9536C28.6446 54.5612 28.2974 55.1979 27.9213 55.7621C27.5451 56.3264 27.169 56.9486 26.7639 57.4984C26.3588 58.0482 25.9537 58.6125 25.5053 59.1189L23.1182 62.0126C22.3081 62.9097 21.6715 63.9369 20.9482 64.9063C20.7616 65.1429 20.5878 65.3892 20.4274 65.6443L19.95 66.4255C19.6317 66.9319 19.3279 67.4673 18.9951 67.9737L18.1561 69.5942L17.7365 70.4189L17.3893 71.2726L17.0277 72.1262L16.854 72.5458C16.854 72.6905 16.7528 72.8497 16.7094 72.9944L16.1307 74.7885L15.6822 76.6404L15.3639 78.5647C15.3639 79.2158 15.2193 79.8814 15.2048 80.5614C15.1687 81.2458 15.1687 81.9316 15.2048 82.616C15.2488 84.0463 15.4477 85.4677 15.798 86.8553L15.4507 87.0578C14.5374 85.7286 13.8393 84.2638 13.382 82.7172C13.1306 81.9532 12.923 81.1755 12.7599 80.3878C12.5863 79.6065 12.4995 78.8252 12.3837 78.0149C12.268 77.2047 12.2825 76.4378 12.2535 75.6421L12.3548 73.2981C12.4416 72.5458 12.5718 71.8513 12.6731 71.0265L12.7599 70.4479L12.9046 69.9125L13.1794 68.8129L13.4543 67.7277C13.5556 67.366 13.6858 67.0332 13.816 66.686L14.5827 64.6314C14.8865 63.9803 15.2048 63.3582 15.5231 62.7216L16.0005 61.7667C16.1585 61.4559 16.3373 61.1562 16.5357 60.8696C17.2267 59.6822 17.9952 58.5414 18.836 57.4549C19.6606 56.4132 20.5576 55.2847 21.2954 54.431C21.686 53.9825 22.0477 53.5051 22.4094 52.9842C22.771 52.4633 23.1327 52.0148 23.4799 51.5373C24.1743 50.5535 24.7819 49.5117 25.404 48.47C26.6014 46.3135 27.5479 44.027 28.2251 41.6552C28.9461 39.1318 29.3304 36.5242 29.368 33.9C29.4391 31.0524 29.1425 28.2075 28.4855 25.4359L28.8471 25.3925Z" fill="#4356B7"/>
<path d="M13.2661 20.3285C14.0437 20.109 14.8587 20.0549 15.6585 20.1695C16.4583 20.2841 17.2253 20.565 17.91 20.994C20.8034 22.4409 22.9734 19.0987 22.9734 18.4042C22.4575 17.7119 21.7736 17.1625 20.9863 16.8081C20.1991 16.4536 19.3345 16.3058 18.4742 16.3785C15.1613 16.393 13.2661 20.3285 13.2661 20.3285Z" fill="#AED082"/>
<path d="M16.2031 13.0218C16.9075 12.9843 17.612 13.0935 18.2719 13.3426C18.9319 13.5916 19.5329 13.9751 20.0369 14.4687C22.2214 16.2194 24.7097 13.8176 24.8399 13.2244C24.5304 12.5349 24.0507 11.9354 23.4459 11.4824C22.841 11.0293 22.1309 10.7375 21.3823 10.6345C18.5612 10.0268 16.2031 13.0218 16.2031 13.0218Z" fill="#AED082"/>
<path d="M17.4326 4.02233C17.9883 4.4584 18.4474 5.00498 18.7811 5.62758C19.1148 6.25018 19.3157 6.93527 19.3712 7.63949C19.8486 10.403 23.3207 10.2294 23.8125 9.86763C24.0302 9.14614 24.0608 8.38114 23.9013 7.64457C23.7419 6.90801 23.3977 6.22409 22.9011 5.65725C21.194 3.3278 17.4326 4.02233 17.4326 4.02233Z" fill="#AED082"/>
<path d="M25.2737 0C25.3639 1.0982 25.0558 2.19214 24.4057 3.08179C24.0662 3.70817 23.9791 4.44062 24.162 5.1292C24.3448 5.81778 24.784 6.41044 25.3894 6.7858C25.8812 6.47644 26.289 6.05046 26.5767 5.54567C26.8644 5.04088 27.0231 4.4729 27.0386 3.89207C27.0625 3.15141 26.9158 2.41515 26.6097 1.74027C26.3037 1.0654 25.8466 0.469978 25.2737 0V0Z" fill="#AED082"/>
<path d="M31.7984 8.20374C31.5918 8.75518 31.2711 9.25675 30.8573 9.67564C30.4434 10.0945 29.9457 10.4213 29.3969 10.6345C27.3426 11.7051 28.3408 14.3963 28.7459 14.6857C29.3695 14.6797 29.9813 14.5143 30.5231 14.2054C31.065 13.8965 31.5189 13.4542 31.8418 12.9205C33.2885 10.9962 31.7984 8.20374 31.7984 8.20374Z" fill="#AED082"/>
<path d="M27.2124 6.48193C27.1371 6.92307 26.9693 7.34329 26.72 7.71487C26.4706 8.08645 26.1454 8.401 25.7657 8.63779C24.319 9.73741 25.5197 11.6038 25.867 11.763C26.3331 11.6682 26.7675 11.4565 27.1294 11.1477C27.4912 10.839 27.7687 10.4433 27.9357 9.99781C28.1124 9.39735 28.1388 8.76269 28.0127 8.14962C27.8866 7.53654 27.6117 6.96384 27.2124 6.48193Z" fill="#AED082"/>
<path d="M23.422 15.7708C23.8674 15.7831 24.3106 15.7032 24.7238 15.5365C25.137 15.3697 25.5114 15.1194 25.8235 14.8014C27.1834 13.6584 28.7893 15.1487 28.8761 15.5248C28.6841 15.9587 28.3884 16.3387 28.015 16.6314C27.6416 16.9241 27.2021 17.1204 26.7349 17.2032C24.9555 17.6228 23.422 15.7708 23.422 15.7708Z" fill="#AED082"/>
<path d="M13.382 8.33393C13.8018 8.48468 14.2479 8.54833 14.6932 8.52097C15.1384 8.4936 15.5733 8.37582 15.9716 8.17479C17.6063 7.5237 18.6624 9.43354 18.6335 9.8242C18.3139 10.1743 17.9133 10.4405 17.4668 10.5994C17.0203 10.7584 16.5417 10.8052 16.0728 10.7357C14.25 10.5766 13.382 8.33393 13.382 8.33393Z" fill="#AED082"/>
<path d="M32.898 3.68958C32.651 4.06938 32.3282 4.39397 31.9498 4.64297C31.5713 4.89196 31.1455 5.05999 30.699 5.13644C28.9919 5.55603 29.2523 7.72633 29.4982 8.03017C29.9626 8.13887 30.4471 8.12677 30.9055 7.99507C31.3638 7.86336 31.7809 7.61645 32.1167 7.27782C32.5344 6.79151 32.8245 6.20886 32.9609 5.58245C33.0973 4.95603 33.0757 4.30554 32.898 3.68958Z" fill="#AED082"/>
<path d="M35.3716 9.47693C35.2814 9.74228 35.1371 9.98601 34.9479 10.1927C34.7586 10.3994 34.5285 10.5646 34.2721 10.6778C33.3173 11.2131 33.8237 12.4864 34.0262 12.6166C34.3227 12.6054 34.6113 12.5184 34.8645 12.3639C35.1178 12.2094 35.3273 11.9925 35.4729 11.734C35.6437 11.3787 35.7238 10.9866 35.7062 10.5928C35.6885 10.1989 35.5736 9.81554 35.3716 9.47693Z" fill="#AED082"/>
<path d="M25.7221 23.1354C25.5915 22.6996 25.5694 22.2384 25.6577 21.7921C25.7459 21.3458 25.9419 20.9278 26.2285 20.5744C27.2122 18.9684 25.0711 17.7965 24.6082 17.8109C24.1709 18.0634 23.8073 18.4259 23.5535 18.8625C23.2997 19.2991 23.1645 19.7945 23.1615 20.2995C23.1615 22.1226 25.7221 23.1354 25.7221 23.1354Z" fill="#AED082"/>
<path d="M34.6629 13.8176C34.2171 14.2837 33.6799 14.6528 33.085 14.9017C32.49 15.1507 31.8501 15.2742 31.2052 15.2645C28.6735 15.4381 28.5144 18.6068 28.7892 19.0698C29.4236 19.3349 30.1151 19.4342 30.7985 19.3582C31.4818 19.2823 32.1346 19.0336 32.6953 18.6357C34.9522 17.3335 34.6629 13.8176 34.6629 13.8176Z" fill="#AED082"/>
<path d="M0 54.1127C0.780402 53.8965 1.59708 53.844 2.39874 53.9586C3.20039 54.0731 3.96971 54.3522 4.65836 54.7783C7.55175 56.2251 9.72182 52.8829 9.70735 52.1884C9.19332 51.494 8.50973 50.9431 7.72199 50.5885C6.93425 50.2338 6.06868 50.0872 5.20811 50.1628C1.90965 50.1772 0 54.1127 0 54.1127Z" fill="#AED082"/>
<path d="M2.93665 46.8061C3.64313 46.7692 4.34965 46.8787 5.01185 47.1276C5.67405 47.3766 6.27766 47.7597 6.78486 48.253C8.9549 50.0037 11.4577 47.5874 11.5734 46.9942C11.2667 46.3069 10.7894 45.7095 10.1867 45.2587C9.58407 44.8079 8.87616 44.5188 8.13027 44.4188C5.30922 43.8111 2.93665 46.8061 2.93665 46.8061Z" fill="#AED082"/>
<path d="M4.18103 37.8065C4.7367 38.2426 5.19586 38.7892 5.52954 39.4118C5.86321 40.0344 6.06415 40.7194 6.1196 41.4237C6.59701 44.1872 10.0691 44.0136 10.5465 43.6518C10.776 42.9326 10.814 42.166 10.6567 41.4276C10.4994 40.6893 10.1522 40.0046 9.64954 39.4415C7.92797 37.112 4.18103 37.8065 4.18103 37.8065Z" fill="#AED082"/>
<path d="M12.0365 33.7843C12.1267 34.8825 11.8186 35.9765 11.1685 36.8661C10.8291 37.4925 10.7419 38.225 10.9248 38.9135C11.1076 39.6021 11.5468 40.1947 12.1522 40.5701C12.6413 40.2591 13.0463 39.8324 13.3314 39.3277C13.6166 38.823 13.773 38.2559 13.787 37.6764C13.8115 36.937 13.6666 36.2019 13.3631 35.5273C13.0597 34.8527 12.6059 34.2564 12.0365 33.7843V33.7843Z" fill="#AED082"/>
<path d="M18.5466 41.988C18.3448 42.5353 18.0307 43.0343 17.6246 43.4529C17.2185 43.8715 16.7293 44.2005 16.1884 44.4188C14.1197 45.475 15.1179 48.1806 15.523 48.47C16.1488 48.4651 16.763 48.3003 17.3074 47.9914C17.8517 47.6825 18.3081 47.2396 18.6334 46.7048C20.0222 44.7805 18.5466 41.988 18.5466 41.988Z" fill="#AED082"/>
<path d="M13.9606 40.2517C13.8805 40.6931 13.7108 41.1134 13.462 41.4867C13.2131 41.8599 12.8905 42.1782 12.5139 42.422C12.3037 42.6271 12.1382 42.8735 12.0279 43.1457C11.9176 43.418 11.8649 43.71 11.873 44.0036C11.8812 44.2972 11.9501 44.586 12.0753 44.8516C12.2006 45.1173 12.3795 45.3541 12.6008 45.5472C13.0674 45.4537 13.5024 45.2425 13.8645 44.9336C14.2266 44.6246 14.5037 44.2282 14.6695 43.7821C14.8469 43.1803 14.875 42.5443 14.7515 41.9292C14.628 41.3141 14.3565 40.7384 13.9606 40.2517V40.2517Z" fill="#AED082"/>
<path d="M10.1702 49.5551C10.6156 49.5674 11.0588 49.4875 11.472 49.3208C11.8852 49.154 12.2595 48.9037 12.5717 48.5857C13.9171 47.4427 15.5374 48.933 15.6098 49.3091C15.4256 49.7483 15.1322 50.133 14.7574 50.4267C14.3826 50.7205 13.939 50.9136 13.4686 50.9875C11.7037 51.436 10.1702 49.5551 10.1702 49.5551Z" fill="#AED082"/>
<path d="M0.130127 42.1037C0.54587 42.2598 0.989576 42.3275 1.43294 42.3026C1.8763 42.2777 2.30959 42.1607 2.70524 41.9591C4.35447 41.2935 5.4106 43.2178 5.3672 43.594C5.05489 43.9541 4.65562 44.2283 4.20739 44.3904C3.75916 44.5525 3.27688 44.5971 2.80652 44.52C0.998153 44.3609 0.130127 42.1037 0.130127 42.1037Z" fill="#AED082"/>
<path d="M19.6317 37.4739C19.3838 37.8429 19.0613 38.1558 18.685 38.3925C18.3088 38.6293 17.8871 38.7845 17.4472 38.8484C15.7256 39.2824 16.0005 41.4527 16.2465 41.7421C16.7086 41.851 17.191 41.839 17.6471 41.7072C18.1032 41.5754 18.5177 41.3283 18.8505 40.9897C19.2598 40.5132 19.5452 39.9429 19.6815 39.3297C19.8178 38.7164 19.8007 38.079 19.6317 37.4739V37.4739Z" fill="#AED082"/>
<path d="M22.1635 43.1888C22.0732 43.4542 21.9289 43.698 21.7397 43.9047C21.5504 44.1114 21.3203 44.2766 21.064 44.3898C20.0947 44.9251 20.6155 46.1983 20.8181 46.3286C21.1145 46.3173 21.4031 46.2303 21.6564 46.0758C21.9096 45.9213 22.1191 45.7044 22.2647 45.4459C22.4318 45.0896 22.5099 44.6981 22.4922 44.3049C22.4746 43.9118 22.3618 43.5288 22.1635 43.1888V43.1888Z" fill="#AED082"/>
<path d="M12.4706 56.9197C12.3388 56.4816 12.316 56.018 12.4043 55.5692C12.4925 55.1203 12.6891 54.6998 12.977 54.3443C13.9607 52.7528 11.8052 51.5808 11.3567 51.5952C10.9134 51.8408 10.5448 52.2018 10.2901 52.64C10.0354 53.0781 9.90401 53.5771 9.90999 54.0839C9.90999 55.9069 12.4706 56.9197 12.4706 56.9197Z" fill="#AED082"/>
<path d="M21.3967 47.6598C20.9547 48.1269 20.4203 48.4968 19.8275 48.7459C19.2347 48.995 18.5965 49.1179 17.9535 49.1067C15.4074 49.2803 15.2482 52.4345 15.5376 52.9119C16.1695 53.1772 16.8587 53.2765 17.5398 53.2005C18.2209 53.1245 18.8712 52.8758 19.4292 52.4778C21.686 51.1178 21.3967 47.6598 21.3967 47.6598Z" fill="#AED082"/>
<path d="M41.8529 28.7058C42.3154 29.3704 42.6352 30.1237 42.7921 30.9181C42.949 31.7125 42.9395 32.5308 42.7643 33.3213C42.3448 36.5044 46.2075 37.4883 46.8585 37.2568C47.3434 36.5415 47.6377 35.7142 47.7136 34.8534C47.7896 33.9926 47.6446 33.1266 47.2925 32.3374C46.193 29.2122 41.8529 28.7058 41.8529 28.7058Z" fill="#AED082"/>
<path d="M49.723 29.0964C49.9921 29.7484 50.1222 30.4493 50.1047 31.1544C50.0873 31.8596 49.9228 32.5533 49.6217 33.1911C48.6669 35.8244 51.7628 37.4014 52.3704 37.3146C52.9241 36.8038 53.3353 36.1577 53.5636 35.4398C53.7919 34.7218 53.8294 33.9568 53.6724 33.22C53.3252 30.3407 49.723 29.0964 49.723 29.0964Z" fill="#AED082"/>
<path d="M58.6345 27.3168C58.4044 27.9848 58.0389 28.5982 57.5609 29.1185C57.083 29.6388 56.5029 30.0549 55.8569 30.3408C53.3975 31.6863 54.6995 34.9128 55.1913 35.2456C55.947 35.2277 56.6849 35.0126 57.332 34.6218C57.979 34.231 58.5128 33.678 58.8804 33.0174C60.5152 30.6446 58.6345 27.3168 58.6345 27.3168Z" fill="#AED082"/>
<path d="M64.9998 33.4081C63.9984 33.8612 62.8649 33.9282 61.8171 33.5962C61.1135 33.479 60.3918 33.6355 59.7999 34.0337C59.2081 34.4319 58.791 35.0415 58.6344 35.7375C59.0758 36.0948 59.5981 36.3383 60.1555 36.4468C60.7129 36.5553 61.2885 36.5253 61.8316 36.3597C62.5514 36.145 63.2118 35.7669 63.7614 35.2549C64.3109 34.743 64.7348 34.1109 64.9998 33.4081V33.4081Z" fill="#AED082"/>
<path d="M59.3868 42.263C58.801 42.2488 58.2244 42.1128 57.6939 41.8638C57.1634 41.6147 56.6906 41.2579 56.3054 40.8161C54.6417 39.2101 52.4138 41.0332 52.2836 41.5251C52.4887 42.1115 52.8413 42.6352 53.3075 43.0458C53.7738 43.4563 54.3379 43.7398 54.9455 43.869C57.2313 44.578 59.3868 42.263 59.3868 42.263Z" fill="#AED082"/>
<path d="M59.517 37.3581C59.0762 37.4313 58.625 37.4125 58.1918 37.303C57.7586 37.1934 57.3527 36.9954 56.9997 36.7215C55.553 35.781 54.1063 37.4594 54.1063 37.85C54.3476 38.2598 54.6896 38.6011 55.0997 38.8416C55.5099 39.0822 55.9747 39.214 56.45 39.2246C58.2439 39.4127 59.517 37.3581 59.517 37.3581Z" fill="#AED082"/>
<path d="M49.4913 36.8226C49.622 37.2481 49.84 37.6416 50.1315 37.9779C50.423 38.3143 50.7814 38.5861 51.1839 38.7759C52.7174 39.673 51.835 41.6696 51.5022 41.8867C51.0298 41.859 50.5723 41.7117 50.1724 41.4586C49.7726 41.2055 49.4437 40.8549 49.2165 40.4398C48.9627 39.8604 48.855 39.2276 48.903 38.5969C48.9509 37.9663 49.1529 37.357 49.4913 36.8226V36.8226Z" fill="#AED082"/>
<path d="M53.2383 24.9005C53.2318 25.3457 53.3171 25.7874 53.4889 26.1981C53.6606 26.6089 53.9151 26.9798 54.2365 27.2878C55.3939 28.6189 53.9183 30.2539 53.5566 30.3407C53.1143 30.1654 52.7247 29.8788 52.4256 29.5087C52.1265 29.1386 51.9281 28.6976 51.8494 28.2283C51.401 26.4486 53.2383 24.9005 53.2383 24.9005Z" fill="#AED082"/>
<path d="M64.0018 41.8144C63.572 41.6998 63.1709 41.4964 62.8246 41.2173C62.4782 40.9382 62.1942 40.5896 61.9908 40.1939C61.805 39.9657 61.5739 39.7786 61.312 39.6444C61.0502 39.5101 60.7634 39.4317 60.4697 39.414C60.176 39.3963 59.8818 39.4398 59.6057 39.5416C59.3297 39.6435 59.0778 39.8016 58.866 40.0058C58.9134 40.4801 59.082 40.9341 59.3557 41.3244C59.6293 41.7146 59.9987 42.0278 60.4284 42.234C61.0129 42.4618 61.6443 42.5426 62.2673 42.4694C62.8903 42.3963 63.4859 42.1714 64.0018 41.8144V41.8144Z" fill="#AED082"/>
<path d="M59.4158 46.0248C59.144 46.0227 58.8755 45.9652 58.6267 45.8557C58.378 45.7463 58.1542 45.5871 57.9691 45.3881C57.1445 44.6502 56.1173 45.5618 56.0594 45.7933C56.1653 46.0692 56.3409 46.3129 56.5691 46.5005C56.7973 46.6882 57.0703 46.8134 57.3615 46.8639C58.4176 47.1678 59.4158 46.0248 59.4158 46.0248Z" fill="#AED082"/>
<path d="M43.285 41.4092C43.6533 41.1398 44.0825 40.9657 44.5343 40.9026C44.9862 40.8395 45.4467 40.8893 45.8746 41.0475C47.7119 41.4526 48.117 39.0364 47.9578 38.6023C47.5721 38.2801 47.1091 38.064 46.6144 37.9752C46.1197 37.8864 45.6105 37.928 45.1368 38.0959C43.4008 38.6457 43.285 41.4092 43.285 41.4092Z" fill="#AED082"/>
<path d="M54.9601 46.8205C54.3766 46.5521 53.8554 46.1653 53.4295 45.6845C53.0036 45.2038 52.6823 44.6397 52.4862 44.0281C51.4735 41.6842 48.4355 42.5812 48.1461 42.9863C48.1001 43.6713 48.2302 44.3567 48.524 44.9772C48.8177 45.5977 49.2653 46.1326 49.8243 46.5311C51.7773 48.224 54.9601 46.8205 54.9601 46.8205Z" fill="#AED082"/>
</g>
<defs>
<clipPath id="clip0">
<rect width="65" height="87" fill="white"/>
</clipPath>
</defs>
</svg>
