<svg width="72" height="81" viewBox="0 0 72 81" fill="none" xmlns="http://www.w3.org/2000/svg">
<g clip-path="url(#clip0)">
<path d="M29.842 58.9415C29.8605 58.4603 29.9447 57.984 30.0924 57.5256C30.2358 57.0588 30.4276 56.6083 30.6647 56.1812C31.1545 55.3127 31.7966 54.539 32.5604 53.8968C32.9333 53.5717 33.3321 53.2773 33.7526 53.0164C34.1774 52.7598 34.6196 52.5332 35.076 52.3382L35.7794 52.0765C36.006 52.0051 36.2444 51.9218 36.4829 51.8624C36.7168 51.7862 36.9558 51.7265 37.1982 51.6839L37.9136 51.5411L39.2608 51.3269C39.69 51.3269 40.1073 51.1484 40.5246 51.0652L40.8465 50.9938L41.1446 50.8986L41.7645 50.7201L42.3607 50.506L42.6587 50.387L42.9449 50.2561L43.231 50.1253L43.3741 50.0539L43.5172 49.9825L44.0656 49.6731L44.6021 49.3162L45.1028 48.9117L45.5678 48.4714C45.72 48.3129 45.8633 48.1461 45.997 47.9718C46.2875 47.6088 46.5281 47.2086 46.7124 46.782H46.8554C46.8592 47.2751 46.7661 47.7643 46.5812 48.2216C46.4992 48.4549 46.3996 48.6815 46.2832 48.8997C46.1759 49.1139 46.0328 49.3281 45.9017 49.5423L45.4367 50.1372L44.9121 50.6726C44.7332 50.8391 44.5306 50.9938 44.3398 51.1604L44.1848 51.2793L44.0298 51.3745L43.7198 51.5887L43.4099 51.791L43.076 51.9694L42.4084 52.3026L41.7288 52.5762L41.383 52.707L41.0254 52.8142C40.5603 52.9624 40.0865 53.0816 39.6066 53.1711C39.1416 53.2544 38.6289 53.3495 38.2236 53.3971L37.5917 53.5161L36.9598 53.647C36.5425 53.7422 36.1371 53.8612 35.7675 53.992C34.9672 54.2636 34.1995 54.6227 33.4784 55.0629C32.7464 55.5076 32.0803 56.0523 31.4993 56.6809C30.8839 57.3368 30.3732 58.0832 29.9851 58.8939L29.842 58.9415Z" fill="#4356B7"/>
<path d="M34.6468 30.2798C35.3449 31.3656 35.9169 32.5271 36.3517 33.742C36.8042 34.9594 37.1512 36.2133 37.389 37.4898C37.8664 40.0247 37.9348 42.6194 37.5917 45.1758C37.4296 46.4088 37.1664 47.6265 36.8048 48.8165C36.4678 49.9763 36.0454 51.1097 35.541 52.2074C35.2787 52.7309 35.0403 53.2663 34.7541 53.7779C34.468 54.2895 34.1938 54.8011 33.8719 55.2651C33.55 55.7291 33.2638 56.2407 32.918 56.6809C32.5723 57.1211 32.2504 57.5971 31.8927 58.0254L29.9255 60.4049C29.2579 61.1426 28.7333 61.9873 28.1252 62.7845C27.9941 62.9868 27.8271 63.1771 27.696 63.3913L27.3026 64.0218C27.0403 64.4502 26.7899 64.8785 26.5157 65.2949L25.8361 66.6394L25.4903 67.3056L25.1923 68.0076L24.9061 68.7096L24.7511 69.0665C24.7043 69.187 24.6645 69.3102 24.6319 69.4353L24.155 70.8988L23.7854 72.4336L23.5231 74.016C23.5231 74.5514 23.4158 75.0987 23.4039 75.646C23.392 76.1933 23.4039 76.7643 23.4039 77.3354C23.4452 78.5151 23.6091 79.6874 23.8927 80.8334L23.6066 81C22.8573 79.905 22.2822 78.701 21.9017 77.4306C21.6946 76.8064 21.5234 76.1707 21.389 75.527C21.2579 74.8845 21.1863 74.2302 21.079 73.5758C20.9717 72.9214 21.0075 72.2789 20.9836 71.6245L21.0671 69.6971C21.1386 69.0665 21.234 68.5073 21.3294 67.8172C21.3294 67.6626 21.3294 67.5079 21.4009 67.3532L21.5082 66.9011L21.7347 66.0087L21.9613 65.1046C22.0566 64.819 22.1639 64.5454 22.2593 64.2598L22.8912 62.5703C23.1416 62.0349 23.4158 61.5233 23.6662 60.9879L24.0596 60.2026C24.1908 59.9409 24.3577 59.7148 24.5008 59.465C25.0756 58.4929 25.7128 57.559 26.4084 56.669C27.076 55.8124 27.8152 54.8844 28.4233 54.1705C28.7452 53.8017 29.0432 53.4091 29.3532 52.9807C29.6632 52.5524 29.9374 52.1836 30.2236 51.791C30.7959 50.9819 31.3085 50.1253 31.8093 49.2686C32.8216 47.5005 33.6219 45.6196 34.1938 43.6648C34.7844 41.5887 35.105 39.4453 35.1476 37.2876C35.2079 34.9452 34.9593 32.6051 34.4084 30.3274L34.6468 30.2798Z" fill="#4356B7"/>
<path d="M32.3457 29.2208C32.2171 28.7676 32.1836 28.2928 32.2472 27.8261C32.3108 27.3593 32.4701 26.9107 32.7153 26.5082C33.5498 24.8306 31.6065 23.5575 31.2011 23.5575C30.7942 23.858 30.4711 24.2574 30.2624 24.7176C30.0538 25.1778 29.9665 25.6836 30.0088 26.1869C30.0446 28.1144 32.3457 29.2208 32.3457 29.2208Z" fill="#81C341"/>
<path d="M28.0656 27.5196C28.0417 27.1093 28.1035 26.6987 28.2472 26.3136C28.3909 25.9285 28.6133 25.5775 28.9002 25.2828C29.9255 24.0097 28.5068 22.5582 28.161 22.4868C27.7593 22.6677 27.4112 22.9488 27.1501 23.3031C26.8891 23.6574 26.7239 24.0728 26.6707 24.5094C26.313 26.1513 28.0656 27.5196 28.0656 27.5196Z" fill="#81C341"/>
<path d="M24.0358 28.3523C24.0922 27.9436 24.2324 27.5509 24.4478 27.1988C24.6632 26.8467 24.9491 26.5427 25.2876 26.3059C26.5395 25.2589 25.4307 23.5575 25.1088 23.4266C24.6782 23.5253 24.2801 23.7324 23.9524 24.0281C23.6248 24.3239 23.3785 24.6984 23.237 25.1161C22.5812 26.6271 24.0358 28.3523 24.0358 28.3523Z" fill="#81C341"/>
<path d="M20.4352 22.2608C21.0781 22.2035 21.7206 22.3764 22.2474 22.7486C22.612 22.9474 23.039 22.999 23.4406 22.8927C23.8421 22.7865 24.1875 22.5305 24.4054 22.1775C24.2274 21.8965 23.9835 21.6629 23.6947 21.497C23.406 21.3312 23.0811 21.2381 22.7481 21.2257C22.3087 21.2084 21.8713 21.2929 21.47 21.4725C21.0687 21.652 20.7145 21.9219 20.4352 22.2608V22.2608Z" fill="#81C341"/>
<path d="M25.228 18.4296C25.5476 18.5487 25.8388 18.733 26.0831 18.9706C26.3273 19.2082 26.5193 19.494 26.6468 19.8098C27.2668 20.9996 28.8406 20.4166 29.0313 20.1786C29.0308 19.8162 28.936 19.4602 28.7563 19.1453C28.5766 18.8304 28.318 18.5674 28.006 18.3821C27.5757 18.1581 27.0961 18.0452 26.6109 18.0535C26.1257 18.0618 25.6503 18.1911 25.228 18.4296V18.4296Z" fill="#81C341"/>
<path d="M24.2266 21.1186C24.483 21.1598 24.7279 21.2541 24.9456 21.3955C25.1632 21.5369 25.3488 21.7222 25.4903 21.9395C26.1342 22.7486 27.2191 22.0704 27.3145 21.8681C27.2556 21.5989 27.1296 21.3488 26.9483 21.1409C26.7671 20.9329 26.5363 20.7739 26.2772 20.6784C25.9255 20.5782 25.5544 20.566 25.1968 20.6428C24.8391 20.7195 24.506 20.8829 24.2266 21.1186V21.1186Z" fill="#81C341"/>
<path d="M29.6633 23.3077C29.6686 23.0472 29.6206 22.7882 29.5222 22.5468C29.4238 22.3054 29.277 22.0867 29.091 21.9038C28.987 21.7647 28.9149 21.6046 28.8795 21.4348C28.8441 21.2649 28.8463 21.0894 28.8861 20.9205C28.9258 20.7516 29.0021 20.5934 29.1096 20.457C29.2171 20.3207 29.3531 20.2093 29.5083 20.131C29.7574 20.2327 29.9772 20.3948 30.1479 20.6025C30.3185 20.8102 30.4347 21.057 30.4859 21.3208C30.7363 22.4035 29.6633 23.3077 29.6633 23.3077Z" fill="#81C341"/>
<path d="M25.8123 30.7082C25.9001 30.4631 25.9369 30.2026 25.9205 29.9429C25.9041 29.6831 25.8349 29.4293 25.7169 29.1971C25.3235 28.2453 26.4442 27.6266 26.6707 27.6504C26.8792 27.8326 27.0378 28.0647 27.1317 28.3248C27.2255 28.585 27.2515 28.8647 27.2072 29.1377C27.1595 30.1966 25.8123 30.7082 25.8123 30.7082Z" fill="#81C341"/>
<path d="M22.5812 17.811C22.7971 17.9558 22.9806 18.1437 23.1201 18.3628C23.2596 18.5819 23.3522 18.8274 23.3919 19.084C23.6423 20.0834 24.918 19.9288 25.0849 19.7741C25.1359 19.509 25.1201 19.2354 25.0389 18.9779C24.9578 18.7204 24.8138 18.487 24.6199 18.2988C24.3446 18.0596 24.0155 17.8903 23.6605 17.8053C23.3055 17.7204 22.9352 17.7224 22.5812 17.811Z" fill="#81C341"/>
<path d="M25.9196 16.3475C26.0748 16.4005 26.2174 16.485 26.3385 16.5955C26.4595 16.7061 26.5563 16.8404 26.623 16.99C26.933 17.5492 27.6722 17.2399 27.7556 17.1328C27.7462 16.9594 27.6933 16.7911 27.6016 16.6435C27.5099 16.4959 27.3825 16.3736 27.231 16.2881C27.0249 16.1877 26.7968 16.1406 26.5677 16.1509C26.3386 16.1613 26.1157 16.2289 25.9196 16.3475V16.3475Z" fill="#81C341"/>
<path d="M33.9553 21.9394C33.7006 22.0188 33.4303 22.0343 33.1683 21.9845C32.9063 21.9347 32.6606 21.8211 32.4531 21.6539C31.5231 21.0828 30.8435 22.344 30.8435 22.6057C30.9951 22.8582 31.2102 23.0667 31.4674 23.2107C31.7246 23.3547 32.0151 23.4291 32.31 23.4267C33.3711 23.4385 33.9553 21.9394 33.9553 21.9394Z" fill="#81C341"/>
<path d="M28.5306 16.7521C28.8006 17.0127 29.0149 17.3253 29.1603 17.6709C29.3058 18.0165 29.3796 18.388 29.3771 18.7628C29.4844 20.25 31.3324 20.3333 31.6066 20.1668C31.7577 19.7965 31.8129 19.3942 31.7671 18.997C31.7212 18.5998 31.5759 18.2205 31.3444 17.8942C30.5813 16.5855 28.5306 16.7521 28.5306 16.7521Z" fill="#81C341"/>
<path d="M24.3934 40.5476C24.2648 40.0944 24.2313 39.6196 24.2949 39.1529C24.3585 38.6861 24.5178 38.2374 24.763 37.8349C25.5976 36.1573 23.6542 34.8843 23.2488 34.8962C22.8412 35.1932 22.5173 35.5902 22.3084 36.0488C22.0995 36.5073 22.0128 37.0119 22.0566 37.5137C22.0923 39.4531 24.3934 40.5476 24.3934 40.5476Z" fill="#81C341"/>
<path d="M20.1133 38.8463C20.0893 38.4361 20.1511 38.0254 20.2948 37.6403C20.4385 37.2552 20.6609 36.9042 20.9478 36.6095C21.9732 35.3364 20.5544 33.8849 20.2086 33.8135C19.8069 33.9943 19.4588 34.2756 19.1977 34.6299C18.9367 34.9841 18.7715 35.3996 18.7183 35.8361C18.3606 37.478 20.1133 38.8463 20.1133 38.8463Z" fill="#81C341"/>
<path d="M14.8554 38.1441C15.1051 37.8104 15.4217 37.5323 15.785 37.3275C16.1484 37.1226 16.5504 36.9956 16.9657 36.9544C18.5752 36.6807 18.468 34.6581 18.2533 34.3726C17.8324 34.2438 17.3852 34.2254 16.955 34.3192C16.5249 34.413 16.1261 34.6157 15.7973 34.908C14.4501 35.955 14.8554 38.1441 14.8554 38.1441Z" fill="#81C341"/>
<path d="M12.4829 33.5874C13.1275 33.5314 13.7708 33.7088 14.2951 34.0871C14.6617 34.2819 15.0889 34.33 15.4897 34.2218C15.8906 34.1135 16.2351 33.8569 16.4531 33.5041C16.2751 33.2231 16.0312 32.9895 15.7425 32.8236C15.4537 32.6578 15.1288 32.5646 14.7959 32.5523C14.3564 32.535 13.919 32.6194 13.5177 32.799C13.1164 32.9786 12.7623 33.2484 12.4829 33.5874V33.5874Z" fill="#81C341"/>
<path d="M17.2758 29.7564C17.5953 29.8755 17.8865 30.0597 18.1308 30.2973C18.3751 30.5349 18.5671 30.8207 18.6945 31.1365C19.3145 32.3262 20.8883 31.7432 21.079 31.5053C21.0785 31.1429 20.9838 30.7868 20.804 30.4719C20.6243 30.157 20.3658 29.8941 20.0537 29.7088C19.6234 29.4849 19.1439 29.3719 18.6587 29.3802C18.1735 29.3885 17.6981 29.5178 17.2758 29.7564V29.7564Z" fill="#81C341"/>
<path d="M16.2742 32.4452C16.5306 32.4864 16.7755 32.5807 16.9932 32.7221C17.2108 32.8635 17.3964 33.0489 17.538 33.2662C17.655 33.3946 17.7988 33.4959 17.9592 33.563C18.1197 33.6301 18.2929 33.6613 18.4667 33.6545C18.6405 33.6477 18.8107 33.603 18.9654 33.5236C19.1201 33.4442 19.2555 33.332 19.3621 33.1948C19.3032 32.9255 19.1773 32.6754 18.996 32.4675C18.8147 32.2595 18.5839 32.1005 18.3248 32.005C17.9731 31.9049 17.602 31.8927 17.2444 31.9694C16.8868 32.0462 16.5536 32.2096 16.2742 32.4452V32.4452Z" fill="#81C341"/>
<path d="M21.7109 34.6343C21.7162 34.3738 21.6682 34.1149 21.5698 33.8735C21.4714 33.6321 21.3246 33.4133 21.1386 33.2304C21.0346 33.0913 20.9625 32.9312 20.9271 32.7614C20.8917 32.5915 20.8939 32.416 20.9337 32.2471C20.9734 32.0782 21.0497 31.92 21.1572 31.7836C21.2647 31.6473 21.4008 31.536 21.5559 31.4576C21.805 31.5594 22.0248 31.7214 22.1955 31.9292C22.3661 32.1369 22.4823 32.3837 22.5335 32.6474C22.7839 33.7658 21.7109 34.6343 21.7109 34.6343Z" fill="#81C341"/>
<path d="M17.383 40.5C17.4708 40.2549 17.5076 39.9945 17.4912 39.7347C17.4748 39.4749 17.4055 39.2212 17.2876 38.989C16.8941 38.0372 18.0148 37.4185 18.2414 37.4423C18.4499 37.6244 18.6085 37.8565 18.7024 38.1166C18.7962 38.3768 18.8222 38.6566 18.7779 38.9295C18.6587 39.9884 17.383 40.5 17.383 40.5Z" fill="#81C341"/>
<path d="M14.6289 29.1375C14.8448 29.2824 15.0283 29.4702 15.1678 29.6893C15.3074 29.9085 15.3999 30.154 15.4396 30.4106C15.69 31.41 16.9657 31.2554 17.1326 31.1007C17.195 30.8304 17.1873 30.5486 17.1101 30.2821C17.0329 30.0156 16.8888 29.7731 16.6915 29.5777C16.4093 29.3429 16.074 29.1802 15.7147 29.1035C15.3554 29.0268 14.9827 29.0385 14.6289 29.1375Z" fill="#81C341"/>
<path d="M17.9672 27.6742C18.1224 27.7272 18.265 27.8116 18.386 27.9222C18.5071 28.0327 18.604 28.167 18.6706 28.3166C18.9806 28.8758 19.7197 28.5665 19.8032 28.4594C19.7938 28.286 19.7408 28.1177 19.6492 27.9701C19.5575 27.8225 19.43 27.7003 19.2786 27.6147C19.0725 27.5144 18.8444 27.4672 18.6153 27.4776C18.3862 27.488 18.1633 27.5556 17.9672 27.6742V27.6742Z" fill="#81C341"/>
<path d="M26.003 33.278C25.7471 33.3527 25.4769 33.3646 25.2154 33.3128C24.9539 33.261 24.7087 33.1471 24.5008 32.9806C23.5708 32.4095 22.8912 33.6706 22.8912 33.9324C23.0428 34.1848 23.2579 34.3934 23.5151 34.5373C23.7723 34.6813 24.0628 34.7558 24.3577 34.7533C25.4188 34.7652 26.003 33.278 26.003 33.278Z" fill="#81C341"/>
<path d="M20.5781 28.0788C20.8481 28.3394 21.0624 28.652 21.2079 28.9976C21.3534 29.3432 21.4271 29.7146 21.4246 30.0895C21.532 31.5767 23.3799 31.66 23.6542 31.4935C23.8053 31.1232 23.8604 30.7209 23.8146 30.3237C23.7687 29.9265 23.6234 29.5473 23.3919 29.221C22.593 27.9122 20.5781 28.0788 20.5781 28.0788Z" fill="#81C341"/>
<path d="M14.7601 47.1865C14.6209 46.737 14.5776 46.2634 14.633 45.7961C14.6884 45.3289 14.8414 44.8784 15.082 44.4738C15.9046 42.7962 13.9613 41.5232 13.5559 41.5232C13.1473 41.8221 12.8229 42.2211 12.6141 42.6817C12.4052 43.1424 12.319 43.6489 12.3637 44.1526C12.4471 46.08 14.7601 47.1865 14.7601 47.1865Z" fill="#81C341"/>
<path d="M10.4799 45.4851C10.4559 45.0749 10.5178 44.6642 10.6614 44.2792C10.8051 43.8941 11.0275 43.543 11.3144 43.2483C12.3398 41.9753 10.921 40.5238 10.5752 40.4524C10.1743 40.6325 9.82588 40.9116 9.56303 41.2635C9.30018 41.6153 9.13152 42.0282 9.073 42.4631C8.72725 44.1169 10.4799 45.4851 10.4799 45.4851Z" fill="#81C341"/>
<path d="M5.22215 44.7831C5.47024 44.4478 5.78642 44.1685 6.15006 43.9635C6.5137 43.7585 6.91659 43.6324 7.33242 43.5934C8.94195 43.3078 8.83464 41.2852 8.62003 41.0116C8.19991 40.8824 7.75367 40.8626 7.32376 40.9543C6.89384 41.0459 6.49457 41.2459 6.164 41.5351C4.80483 42.594 5.22215 44.7831 5.22215 44.7831Z" fill="#81C341"/>
<path d="M2.84949 40.2264C3.48931 40.1622 4.13037 40.336 4.6498 40.7142C5.01735 40.908 5.44442 40.9568 5.84634 40.851C6.24826 40.7452 6.59569 40.4925 6.8197 40.1431C6.64173 39.862 6.39779 39.6285 6.10904 39.4627C5.82028 39.2968 5.49539 39.2037 5.16246 39.1913C4.72302 39.174 4.28557 39.2585 3.8843 39.438C3.48303 39.6176 3.12883 39.8874 2.84949 40.2264V40.2264Z" fill="#81C341"/>
<path d="M7.63037 36.3953C7.95106 36.5149 8.24362 36.6992 8.48978 36.9366C8.73593 37.1741 8.93041 37.4596 9.06109 37.7754C9.68106 38.9652 11.2548 38.3822 11.4456 38.1442C11.4402 37.7798 11.3421 37.4227 11.1607 37.1064C10.9793 36.7901 10.7204 36.525 10.4083 36.3357C9.97642 36.1157 9.49661 36.006 9.01182 36.0164C8.52703 36.0268 8.0524 36.157 7.63037 36.3953V36.3953Z" fill="#81C341"/>
<path d="M6.62891 39.0723C6.88584 39.1163 7.13084 39.2131 7.34837 39.3564C7.56591 39.4998 7.75125 39.6866 7.89269 39.9051C8.5365 40.7023 9.63338 40.036 9.72876 39.8337C9.66983 39.5645 9.5439 39.3144 9.36263 39.1065C9.18135 38.8985 8.95058 38.7395 8.69151 38.644C8.33866 38.5433 7.96655 38.5297 7.60725 38.6043C7.24796 38.6789 6.91222 38.8395 6.62891 39.0723V39.0723Z" fill="#81C341"/>
<path d="M12.0655 41.2614C12.0743 41.0032 12.029 40.7461 11.9325 40.5064C11.836 40.2667 11.6905 40.0497 11.5052 39.8694C10.8256 39.0841 11.6959 38.1442 11.9105 38.0847C12.1613 38.1858 12.3829 38.3474 12.5557 38.5551C12.7284 38.7627 12.8468 39.0099 12.9001 39.2745C13.1505 40.3691 12.0655 41.2614 12.0655 41.2614Z" fill="#81C341"/>
<path d="M7.73777 47.1389C7.82843 46.8943 7.8668 46.6336 7.85038 46.3734C7.83395 46.1131 7.7631 45.8591 7.6424 45.6279C7.26088 44.676 8.38158 44.0574 8.59619 44.0693C8.80691 44.2527 8.96769 44.4863 9.06358 44.7485C9.15948 45.0106 9.18735 45.2926 9.14461 45.5684C9.04923 46.6273 7.73777 47.1389 7.73777 47.1389Z" fill="#81C341"/>
<path d="M4.99548 35.7766C5.21138 35.9214 5.39488 36.1093 5.53441 36.3284C5.67395 36.5475 5.76648 36.7931 5.80621 37.0497C6.05658 38.0491 7.32037 37.8825 7.48728 37.7397C7.54969 37.4694 7.54192 37.1876 7.46472 36.9211C7.38753 36.6546 7.24347 36.4122 7.04616 36.2168C6.76624 35.9821 6.43303 35.8193 6.0756 35.7425C5.71816 35.6658 5.34735 35.6775 4.99548 35.7766V35.7766Z" fill="#81C341"/>
<path d="M8.3219 34.3132C8.47604 34.3648 8.61797 34.4474 8.73894 34.5559C8.85991 34.6643 8.9574 34.7963 9.02536 34.9437C9.08627 35.0326 9.16535 35.1076 9.25742 35.1637C9.34949 35.2198 9.45245 35.2558 9.55949 35.2693C9.66652 35.2827 9.7752 35.2735 9.87836 35.242C9.98152 35.2104 10.0768 35.1574 10.158 35.0865C10.1509 34.9139 10.1002 34.746 10.0105 34.5983C9.92091 34.4506 9.79526 34.328 9.64532 34.2418C9.43557 34.1453 9.20538 34.1013 8.97475 34.1138C8.74412 34.1262 8.52 34.1947 8.3219 34.3132V34.3132Z" fill="#81C341"/>
<path d="M16.3696 39.905C16.115 39.9844 15.8447 39.9999 15.5826 39.9501C15.3206 39.9003 15.0749 39.7867 14.8674 39.6195C13.9374 39.0484 13.2459 40.3095 13.2578 40.5713C13.4053 40.8239 13.6181 41.0324 13.8741 41.1747C14.13 41.3171 14.4195 41.3881 14.7124 41.3804C15.7854 41.4042 16.3696 39.905 16.3696 39.905Z" fill="#81C341"/>
<path d="M10.9329 34.7177C11.2075 34.9748 11.4248 35.2867 11.5706 35.6331C11.7165 35.9795 11.7876 36.3527 11.7794 36.7284C11.8867 38.2037 13.7347 38.2989 14.0089 38.1323C14.16 37.762 14.2152 37.3598 14.1693 36.9626C14.1235 36.5654 13.9781 36.1862 13.7466 35.8599C12.9597 34.5392 10.9329 34.7177 10.9329 34.7177Z" fill="#81C341"/>
<path d="M10.9925 34.4797C10.874 34.062 10.8435 33.6243 10.9031 33.1942C10.9626 32.7642 11.1107 32.3512 11.3383 31.9812C12.1013 30.4344 10.301 29.2566 9.9314 29.2566C9.56679 29.5321 9.2767 29.8939 9.08728 30.3093C8.89786 30.7248 8.81508 31.1808 8.84645 31.6361C8.8703 33.4684 10.9925 34.4797 10.9925 34.4797Z" fill="#81C341"/>
<path d="M7.04618 32.921C7.02246 32.542 7.07804 32.1623 7.20941 31.8058C7.34077 31.4494 7.54504 31.1242 7.80921 30.8508C8.76301 29.6611 7.45152 28.3285 7.12961 28.269C6.75994 28.4355 6.43893 28.6933 6.19693 29.0181C5.95493 29.3429 5.79997 29.7239 5.74664 30.1251C5.42473 31.648 7.04618 32.921 7.04618 32.921Z" fill="#81C341"/>
<path d="M2.19371 32.2667C2.42721 31.9673 2.72056 31.7196 3.05512 31.5394C3.38967 31.3591 3.75812 31.2503 4.13709 31.2197C5.6274 30.958 5.5201 29.09 5.32934 28.8402C4.93964 28.7204 4.52565 28.7023 4.12697 28.7877C3.72829 28.8731 3.35824 29.0592 3.05213 29.328C2.68066 29.7115 2.40837 30.1794 2.2588 30.6914C2.10924 31.2035 2.08689 31.7441 2.19371 32.2667Z" fill="#81C341"/>
<path d="M0 28.0549C0.594294 28.0032 1.18724 28.168 1.66914 28.5189C2.00741 28.6972 2.40075 28.7411 2.7701 28.6417C3.13946 28.5424 3.45749 28.3073 3.66022 27.9835C3.49786 27.723 3.27368 27.5063 3.00751 27.3528C2.74135 27.1992 2.4414 27.1135 2.13414 27.1031C1.72901 27.0872 1.32565 27.1648 0.955496 27.3299C0.58534 27.495 0.258363 27.7431 0 28.0549Z" fill="#81C341"/>
<path d="M4.42322 24.5212C4.71708 24.6332 4.98497 24.8039 5.21047 25.0228C5.43597 25.2417 5.61434 25.5042 5.7347 25.7943C6.30698 26.9008 7.76151 26.3535 7.9165 26.1393C7.91474 25.8032 7.82604 25.4733 7.65894 25.1814C7.49183 24.8896 7.252 24.6458 6.96272 24.4736C6.56783 24.2736 6.1298 24.1733 5.68704 24.1816C5.24428 24.1899 4.8103 24.3065 4.42322 24.5212Z" fill="#81C341"/>
<path d="M3.49329 26.996C3.7337 27.0346 3.96359 27.1221 4.16869 27.2531C4.37379 27.3841 4.54972 27.5558 4.68554 27.7574C5.28166 28.507 6.28317 27.8883 6.37855 27.698C6.32296 27.4477 6.20544 27.2153 6.03675 27.022C5.86806 26.8288 5.65358 26.6807 5.41283 26.5914C5.08427 26.4956 4.73703 26.4824 4.4021 26.553C4.06718 26.6236 3.75496 26.7757 3.49329 26.996V26.996Z" fill="#81C341"/>
<path d="M8.51261 29.0067C8.51906 28.768 8.47578 28.5305 8.38548 28.3093C8.29518 28.0881 8.15983 27.888 7.98802 27.7217C7.36805 26.996 8.16686 26.1274 8.36955 26.0798C8.61305 26.1797 8.82544 26.3426 8.98474 26.5518C9.14403 26.7609 9.24447 27.0087 9.27567 27.2696C9.51412 28.1976 8.51261 29.0067 8.51261 29.0067Z" fill="#81C341"/>
<path d="M4.51866 34.444C4.6026 34.2189 4.63851 33.9788 4.62414 33.7391C4.60977 33.4994 4.54542 33.2654 4.43519 33.0519C4.07752 32.1715 5.10283 31.5885 5.30551 31.6123C5.50055 31.7802 5.64905 31.9953 5.73674 32.237C5.82444 32.4787 5.84838 32.7388 5.80628 32.9924C5.72282 33.968 4.51866 34.444 4.51866 34.444Z" fill="#81C341"/>
<path d="M1.96716 23.9502C2.16805 24.0859 2.33852 24.2616 2.46782 24.4664C2.59711 24.6712 2.6824 24.9006 2.71829 25.14C2.94481 26.0561 4.12514 25.9133 4.28013 25.7824C4.33553 25.5323 4.32631 25.2723 4.25332 25.0267C4.18032 24.7811 4.04594 24.558 3.86284 24.3785C3.60701 24.1562 3.29992 24.0008 2.96909 23.926C2.63825 23.8513 2.29399 23.8596 1.96716 23.9502Z" fill="#81C341"/>
<path d="M5.05518 22.6058C5.19697 22.6534 5.32736 22.7298 5.43816 22.8301C5.54896 22.9305 5.63777 23.0526 5.699 23.1888C5.7564 23.2699 5.83011 23.3382 5.91545 23.3893C6.0008 23.4404 6.09589 23.4731 6.19463 23.4854C6.29338 23.4977 6.3936 23.4894 6.48891 23.4608C6.58423 23.4323 6.67255 23.3842 6.74819 23.3196C6.7429 23.1605 6.69614 23.0055 6.61251 22.8699C6.52888 22.7343 6.41124 22.6228 6.27126 22.5463C6.07937 22.4554 5.86793 22.4132 5.65574 22.4235C5.44355 22.4339 5.23723 22.4966 5.05518 22.6058V22.6058Z" fill="#81C341"/>
<path d="M12.4829 27.817C12.2465 27.8894 11.996 27.9034 11.753 27.8578C11.51 27.8122 11.2818 27.7084 11.0879 27.5553C10.2295 27.0199 9.59762 28.1858 9.60954 28.4238C9.7475 28.6574 9.94461 28.8507 10.1811 28.9844C10.4175 29.118 10.685 29.1873 10.9568 29.1852C11.9344 29.1496 12.4829 27.817 12.4829 27.817Z" fill="#81C341"/>
<path d="M7.46338 22.9745C7.71592 23.2129 7.91625 23.5009 8.05168 23.8203C8.18712 24.1398 8.25472 24.4837 8.25027 24.8306C8.34565 26.1988 10.0506 26.2821 10.3009 26.1275C10.4432 25.787 10.496 25.416 10.4542 25.0495C10.4125 24.683 10.2777 24.3333 10.0625 24.0334C9.33524 22.8199 7.46338 22.9745 7.46338 22.9745Z" fill="#81C341"/>
<path d="M22.7362 9.97034C22.95 10.3487 23.0721 10.7717 23.0928 11.2055C23.1135 11.6393 23.0322 12.072 22.8554 12.4688C22.3189 14.1583 24.5246 14.8484 24.9299 14.7056C25.2679 14.3699 25.5109 13.951 25.6344 13.4913C25.7579 13.0317 25.7576 12.5476 25.6334 12.0882C25.2638 10.4106 22.7362 9.97034 22.7362 9.97034Z" fill="#81C341"/>
<path d="M18.2295 6.59131C18.4078 6.90444 18.5094 7.25523 18.526 7.61501C18.5425 7.97479 18.4736 8.33344 18.3249 8.66158C17.8837 10.0774 19.7198 10.6246 20.0536 10.5295C20.3354 10.2506 20.538 9.90217 20.6406 9.51964C20.7433 9.1371 20.7423 8.73427 20.6378 8.35223C20.3398 6.93639 18.2295 6.59131 18.2295 6.59131Z" fill="#81C341"/>
<path d="M25.3235 9.81562C25.3235 9.81562 25.8838 9.94649 26.2415 10.8507C26.5992 11.755 27.7676 11.2791 27.9107 11.1006C27.9383 10.8394 27.8967 10.5755 27.79 10.3353C27.6833 10.0952 27.5152 9.88724 27.3026 9.73233C26.5515 9.12554 25.3235 9.81562 25.3235 9.81562Z" fill="#81C341"/>
<path d="M9.76453 21.8681C10.1886 21.5282 10.6792 21.2807 11.2048 21.1413C11.7305 21.002 12.2795 20.974 12.8167 21.059C14.9747 21.2018 15.4754 18.5724 15.2847 18.156C14.7867 17.8578 14.2203 17.6925 13.6399 17.6758C13.0594 17.6592 12.4845 17.7917 11.9702 18.0608C9.91953 18.9531 9.76453 21.8681 9.76453 21.8681Z" fill="#81C341"/>
<path d="M50.158 21.7135C50.5837 21.377 51.0748 21.1324 51.6002 20.9952C52.1256 20.858 52.6738 20.8311 53.2101 20.9163C55.3681 21.0591 55.8688 18.4297 55.6781 18.0133C55.1805 17.714 54.614 17.548 54.0334 17.5313C53.4527 17.5146 52.8775 17.6479 52.3636 17.9181C50.3129 18.7866 50.158 21.7135 50.158 21.7135Z" fill="#81C341"/>
<path d="M6.54553 15.6812C7.08888 15.7101 7.62038 15.8508 8.10665 16.0944C8.59291 16.3381 9.02343 16.6794 9.37116 17.0971C10.8972 18.62 13.0075 16.9662 13.1506 16.526C12.9683 15.9748 12.6482 15.479 12.2206 15.0855C11.7929 14.6921 11.2718 14.4139 10.7065 14.2773C8.59619 13.5396 6.54553 15.6812 6.54553 15.6812Z" fill="#81C341"/>
<path d="M9.68115 9.67285C10.2428 10.3361 10.5361 11.1847 10.5038 12.0524C10.5669 12.5972 10.837 13.0971 11.2584 13.4491C11.6799 13.801 12.2206 13.9783 12.7691 13.9442C12.9415 13.5421 13.0121 13.1039 12.9746 12.6681C12.9372 12.2324 12.7929 11.8125 12.5545 11.4456C12.2469 10.9473 11.8269 10.5276 11.3281 10.2199C10.8292 9.91212 10.2653 9.72478 9.68115 9.67285V9.67285Z" fill="#81C341"/>
<path d="M10.8137 22.463C11.3753 23.1263 11.6687 23.9748 11.6363 24.8426C11.7263 25.3645 12.0059 25.8351 12.4216 26.1643C12.8372 26.4935 13.3599 26.6583 13.8897 26.6272C14.0583 26.2217 14.1258 25.7814 14.0864 25.3441C14.0469 24.9069 13.9017 24.4857 13.6632 24.1168C13.3475 23.6412 12.9262 23.2446 12.432 22.9578C11.9379 22.6709 11.3841 22.5016 10.8137 22.463V22.463Z" fill="#81C341"/>
<path d="M17.4665 11.9335C17.5818 12.3684 17.6053 12.8224 17.5355 13.2668C17.4657 13.7112 17.3042 14.1364 17.0612 14.5153C16.2385 16.0858 18.0627 17.335 18.4442 17.3469C18.8395 17.0689 19.1568 16.6943 19.3655 16.2589C19.5743 15.8235 19.6676 15.3419 19.6364 14.8603C19.6126 13.028 17.4665 11.9335 17.4665 11.9335Z" fill="#81C341"/>
<path d="M13.7825 12.8853C13.9307 13.1937 14.0136 13.5294 14.0259 13.8713C14.0382 14.2131 13.9797 14.5539 13.854 14.8722C13.4606 16.1809 15.0463 16.8472 15.3085 16.7996C15.5598 16.5316 15.7386 16.2043 15.8283 15.8484C15.9179 15.4926 15.9155 15.1198 15.8212 14.7651C15.5708 13.385 13.7825 12.8853 13.7825 12.8853Z" fill="#81C341"/>
<path d="M52.8524 13.3016C52.9696 13.5411 53.0355 13.8024 53.0458 14.0687C53.056 14.335 53.0105 14.6006 52.9121 14.8483C52.6021 15.8477 53.8062 16.3712 54.0328 16.3356C54.2338 16.1258 54.376 15.867 54.4451 15.585C54.5141 15.3031 54.5076 15.008 54.4262 14.7294C54.2354 13.6943 52.8524 13.3016 52.8524 13.3016Z" fill="#81C341"/>
<path d="M15.535 20.4047C15.8212 20.214 16.0652 19.9667 16.2518 19.6782C16.4384 19.3896 16.5637 19.0659 16.62 18.7271C16.9538 17.4183 18.6349 17.6325 18.8495 17.8348C18.929 18.191 18.916 18.5616 18.8117 18.9115C18.7074 19.2613 18.5152 19.5787 18.2534 19.8336C17.8823 20.1446 17.4401 20.3595 16.9659 20.4591C16.4917 20.5587 16.0002 20.5401 15.535 20.4047Z" fill="#81C341"/>
<path d="M19.0164 26.5321C19.3045 26.3435 19.55 26.0969 19.7368 25.8079C19.9237 25.519 20.0479 25.1943 20.1013 24.8545C20.4471 23.5458 22.1162 23.7599 22.3427 23.9622C22.4208 24.3195 22.4059 24.6907 22.2995 25.0406C22.193 25.3905 21.9986 25.7074 21.7347 25.961C21.3636 26.2721 20.9214 26.4869 20.4473 26.5866C19.9731 26.6862 19.4816 26.6674 19.0164 26.5321Z" fill="#81C341"/>
<path d="M13.1625 21.5349C13.4437 21.7312 13.7626 21.8674 14.099 21.935C14.4355 22.0025 14.7823 22 15.1177 21.9276C16.465 21.7491 16.8823 23.391 16.7869 23.6647C16.4815 23.8708 16.1284 23.9954 15.761 24.0267C15.3937 24.0579 15.0245 23.9947 14.6886 23.8431C13.3652 23.3791 13.1625 21.5349 13.1625 21.5349Z" fill="#81C341"/>
<path d="M5.90161 20.1787C6.23027 20.099 6.53878 19.9521 6.80762 19.7473C7.07647 19.5425 7.29978 19.2842 7.46346 18.9889C8.20265 17.7991 9.71681 18.5843 9.84796 18.8342C9.81094 19.1972 9.68214 19.5448 9.4736 19.8445C9.26505 20.1441 8.9836 20.3861 8.65571 20.5475C8.20187 20.718 7.71276 20.7736 7.23212 20.7092C6.75149 20.6448 6.29434 20.4626 5.90161 20.1787V20.1787Z" fill="#81C341"/>
<path d="M12.6974 31.9931C12.7723 31.658 12.7782 31.3112 12.7146 30.9737C12.6511 30.6362 12.5195 30.3151 12.3278 30.03C11.6602 28.8402 13.0312 27.8527 13.3174 27.8408C13.6235 28.0445 13.872 28.3233 14.039 28.6504C14.206 28.9775 14.286 29.3419 14.2712 29.7088C14.3785 31.1127 12.6974 31.9931 12.6974 31.9931Z" fill="#AED082"/>
<path d="M16.1192 8.61401C16.1265 8.95732 16.0625 9.29846 15.9312 9.61585C15.7998 9.93325 15.6041 10.22 15.3562 10.4582C14.462 11.4814 15.5946 12.7306 15.8808 12.8377C16.2201 12.6995 16.5185 12.4774 16.748 12.1922C16.9774 11.907 17.1303 11.5682 17.1922 11.2077C17.538 9.81568 16.1192 8.61401 16.1192 8.61401Z" fill="#81C341"/>
<path d="M20.2206 11.1602C20.2775 11.3585 20.2932 11.5664 20.2665 11.771C20.2398 11.9756 20.1715 12.1727 20.0656 12.3499C19.696 13.1233 20.5902 13.6944 20.769 13.6825C20.9501 13.5446 21.0933 13.3631 21.185 13.1551C21.2767 12.947 21.3141 12.7191 21.2936 12.4927C21.2698 11.6004 20.2206 11.1602 20.2206 11.1602Z" fill="#81C341"/>
<path d="M56.3101 21.0233C56.3649 21.2219 56.3795 21.4295 56.3529 21.6338C56.3262 21.8381 56.259 22.0351 56.1551 22.2131C55.7855 22.9745 56.6796 23.5456 56.8585 23.5456C57.0379 23.4063 57.1798 23.2246 57.2714 23.0169C57.363 22.8092 57.4013 22.582 57.383 22.3559C57.3592 21.5111 56.3101 21.0233 56.3101 21.0233Z" fill="#81C341"/>
<path d="M20.2564 24.0097C19.9796 23.7946 19.7599 23.5151 19.6165 23.1957C19.4731 22.8763 19.4103 22.5267 19.4337 22.1774C19.3383 20.7378 17.4665 20.9877 17.1804 21.1542C17.0198 21.5063 16.9562 21.8947 16.996 22.2795C17.0359 22.6642 17.1777 23.0315 17.4069 23.3434C18.1938 24.5094 20.2564 24.0097 20.2564 24.0097Z" fill="#81C341"/>
<path d="M17.371 29.2328C17.2746 28.8964 17.2622 28.5416 17.335 28.1994C17.4077 27.8572 17.5634 27.5379 17.7883 27.2696C18.5633 26.0798 16.918 25.1161 16.5961 25.128C16.2584 25.3184 15.9776 25.5951 15.7827 25.9297C15.5879 26.2643 15.4859 26.6447 15.4873 27.0317C15.4157 28.4238 17.371 29.2328 17.371 29.2328Z" fill="#81C341"/>
<path d="M21.7586 14.2297C21.6784 14.7101 21.5006 15.169 21.2361 15.5782C20.9716 15.9874 20.626 16.3383 20.2206 16.6093C18.7064 17.7991 20.006 19.9049 20.3994 20.0715C20.9149 19.9583 21.3927 19.7151 21.7871 19.3652C22.1816 19.0153 22.4797 18.5703 22.6528 18.0727C23.4277 16.2761 21.7586 14.2297 21.7586 14.2297Z" fill="#81C341"/>
<path d="M51.5887 43.4626C51.4601 43.0093 51.4266 42.5345 51.4902 42.0678C51.5538 41.601 51.7131 41.1524 51.9583 40.7498C52.7929 39.0722 50.8495 37.7992 50.4441 37.8111C50.0373 38.1116 49.7141 38.5109 49.5054 38.9711C49.2968 39.4313 49.2095 39.9371 49.2519 40.4405C49.2877 42.3679 51.5887 43.4626 51.5887 43.4626Z" fill="#81C341"/>
<path d="M47.2727 41.773C47.2485 41.361 47.3102 40.9485 47.4539 40.5615C47.5975 40.1744 47.82 39.8213 48.1073 39.5244C49.1326 38.2514 47.7138 36.7998 47.368 36.7284C46.9684 36.9121 46.622 37.1941 46.3614 37.5478C46.1007 37.9016 45.9343 38.3156 45.8777 38.751C45.5558 40.3929 47.2727 41.773 47.2727 41.773Z" fill="#81C341"/>
<path d="M42.0507 41.0711C42.3004 40.7374 42.617 40.4593 42.9803 40.2545C43.3437 40.0496 43.7458 39.9225 44.161 39.8813C45.7706 39.5958 45.6633 37.5731 45.4487 37.2995C45.0285 37.1703 44.5823 37.1506 44.1524 37.2423C43.7224 37.3339 43.3232 37.5338 42.9926 37.823C41.6454 38.8819 42.0507 41.0711 42.0507 41.0711Z" fill="#81C341"/>
<path d="M39.6781 36.5023C40.3227 36.4463 40.966 36.6237 41.4903 37.002C41.8563 37.1997 42.2844 37.2495 42.6861 37.1409C43.0878 37.0324 43.4323 36.7739 43.6483 36.419C43.4703 36.1379 43.2264 35.9044 42.9377 35.7385C42.6489 35.5727 42.324 35.4795 41.9911 35.4672C41.552 35.4526 41.1154 35.5383 40.7146 35.7177C40.3137 35.8971 39.9592 36.1654 39.6781 36.5023Z" fill="#81C341"/>
<path d="M44.4709 32.6832C44.7894 32.801 45.0799 32.9833 45.3241 33.2189C45.5683 33.4544 45.7609 33.7379 45.8897 34.0514C46.5097 35.2412 48.0835 34.6701 48.2742 34.4322C48.2842 34.0625 48.1971 33.6966 48.0214 33.371C47.8457 33.0454 47.5875 32.7713 47.2727 32.5761C46.8339 32.3591 46.3476 32.2552 45.8582 32.2739C45.3688 32.2926 44.8919 32.4333 44.4709 32.6832V32.6832Z" fill="#81C341"/>
<path d="M43.4695 35.3602C43.7248 35.4049 43.9683 35.5005 44.1855 35.6416C44.4027 35.7827 44.5891 35.9663 44.7333 36.1812C45.3771 36.9902 46.462 36.324 46.5574 36.1812C46.4995 35.9115 46.374 35.6608 46.1926 35.4528C46.0112 35.2447 45.7798 35.086 45.5202 34.9914C45.174 34.8826 44.8064 34.8593 44.4492 34.9235C44.092 34.9878 43.7558 35.1377 43.4695 35.3602V35.3602Z" fill="#81C341"/>
<path d="M48.9061 37.5494C48.9112 37.2906 48.863 37.0336 48.7646 36.7941C48.6662 36.5547 48.5196 36.338 48.3338 36.1573C48.2277 36.018 48.1537 35.857 48.1171 35.6858C48.0805 35.5147 48.0822 35.3376 48.122 35.1671C48.1619 34.9967 48.2389 34.8371 48.3476 34.6998C48.4564 34.5624 48.5941 34.4508 48.7511 34.3727C48.9996 34.4753 49.2189 34.6376 49.3895 34.8452C49.56 35.0528 49.6766 35.2991 49.7287 35.5625C49.9791 36.6571 48.9061 37.5494 48.9061 37.5494Z" fill="#81C341"/>
<path d="M44.5783 43.4269C44.6654 43.1816 44.7019 42.9213 44.6855 42.6616C44.6691 42.4019 44.6002 42.1482 44.4829 41.9158C44.0895 40.964 45.2102 40.3334 45.4367 40.3572C45.6452 40.5393 45.8038 40.7715 45.8977 41.0316C45.9915 41.2918 46.0175 41.5715 45.9732 41.8444C45.8898 42.9033 44.5783 43.4269 44.5783 43.4269Z" fill="#81C341"/>
<path d="M41.8241 32.0526C42.04 32.1974 42.2235 32.3853 42.363 32.6044C42.5026 32.8235 42.5951 33.0691 42.6348 33.3257C42.8852 34.3251 44.1609 34.1704 44.3278 34.0276C44.3902 33.7573 44.3825 33.4755 44.3053 33.209C44.2281 32.9425 44.084 32.7001 43.8867 32.5047C43.6066 32.266 43.2719 32.0999 42.9121 32.0211C42.5524 31.9422 42.1787 31.953 41.8241 32.0526V32.0526Z" fill="#81C341"/>
<path d="M45.1625 30.6011C45.3166 30.6528 45.4585 30.7354 45.5795 30.8438C45.7005 30.9523 45.7979 31.0843 45.8659 31.2317C46.1759 31.7909 46.9151 31.4934 46.9985 31.3744C46.9891 31.201 46.9361 31.0328 46.8445 30.8851C46.7528 30.7375 46.6254 30.6153 46.4739 30.5297C46.2662 30.4333 46.038 30.3893 45.8092 30.4017C45.5805 30.4142 45.3584 30.4827 45.1625 30.6011Z" fill="#81C341"/>
<path d="M53.234 36.1454C52.9793 36.2247 52.709 36.2402 52.447 36.1904C52.1849 36.1406 51.9392 36.0271 51.7317 35.8598C50.8017 35.2887 50.1222 36.538 50.1222 36.8116C50.2735 37.0635 50.4888 37.271 50.7463 37.4131C51.0038 37.5552 51.2944 37.6268 51.5886 37.6207C52.614 37.6921 53.234 36.1454 53.234 36.1454Z" fill="#81C341"/>
<path d="M47.7734 31.0056C48.0451 31.265 48.2605 31.5773 48.4061 31.9232C48.5517 32.2691 48.6245 32.6412 48.6199 33.0164C48.7272 34.4917 50.5752 34.5868 50.8494 34.4084C50.9984 34.0397 51.0525 33.6397 51.0066 33.2448C50.9608 32.8499 50.8166 32.4728 50.5871 32.1478C49.7883 30.8272 47.7734 31.0056 47.7734 31.0056Z" fill="#81C341"/>
<path d="M54.1282 21.3208C54.088 21.783 53.9542 22.2322 53.7349 22.6412C53.5157 23.0502 53.2154 23.4105 52.8524 23.7004C51.5052 25.0091 52.8525 26.8533 53.2817 26.9841C53.7648 26.8384 54.2026 26.5716 54.5532 26.2092C54.9038 25.8469 55.1556 25.4009 55.2846 24.9139C55.9165 23.1412 54.1282 21.3208 54.1282 21.3208Z" fill="#81C341"/>
<path d="M57.5738 24.3666C57.4544 24.7614 57.2553 25.1276 56.9887 25.4427C56.7222 25.7578 56.3938 26.0152 56.0239 26.1989C54.629 27.0436 55.4754 28.8878 55.7735 29.0781C56.2128 29.0427 56.6359 28.8963 57.003 28.6528C57.3701 28.4093 57.6691 28.0767 57.8719 27.6861C58.7541 26.2465 57.5738 24.3666 57.5738 24.3666Z" fill="#81C341"/>
<path d="M62.2831 26.8057C61.9313 27.0249 61.5381 27.1697 61.1279 27.2311C60.7178 27.2925 60.2993 27.2692 59.8986 27.1626C58.289 26.8889 57.7048 28.8283 57.8121 29.1614C58.1648 29.4238 58.5787 29.592 59.0147 29.6503C59.4507 29.7086 59.8944 29.655 60.3039 29.4945C61.9254 29.0067 62.2831 26.8057 62.2831 26.8057Z" fill="#81C341"/>
<path d="M62.9627 31.898C62.3388 31.7347 61.7962 31.3497 61.4367 30.8153C61.1591 30.5056 60.7727 30.3143 60.3576 30.2811C59.9426 30.2478 59.5307 30.3752 59.2072 30.6368C59.2764 30.9558 59.4205 31.2537 59.6278 31.5061C59.8351 31.7584 60.0996 31.9581 60.3994 32.0884C60.8115 32.2602 61.2584 32.3325 61.7039 32.2994C62.1493 32.2663 62.5806 32.1288 62.9627 31.898Z" fill="#81C341"/>
<path d="M57.1685 33.8848C56.9087 33.6652 56.6973 33.3944 56.5475 33.0893C56.3978 32.7842 56.3129 32.4515 56.2982 32.112C56.1074 30.7676 54.4382 30.7914 54.1998 30.9223C54.0805 31.2656 54.0508 31.6336 54.1133 31.9916C54.1759 32.3497 54.3287 32.6859 54.5574 32.9687C55.3443 34.1466 57.1685 33.8848 57.1685 33.8848Z" fill="#81C341"/>
<path d="M59.0164 31.6957C58.7923 31.5692 58.5965 31.3984 58.4407 31.1938C58.2849 30.9893 58.1725 30.7553 58.1104 30.5059C57.7765 29.5303 56.5247 29.792 56.3697 29.9467C56.3293 30.2217 56.3596 30.5024 56.4576 30.7625C56.5556 31.0226 56.7181 31.2536 56.93 31.4339C57.2302 31.6436 57.5772 31.777 57.9407 31.8226C58.3043 31.8682 58.6735 31.8247 59.0164 31.6957V31.6957Z" fill="#81C341"/>
<path d="M54.6408 27.817C54.5478 28.0577 54.5051 28.3149 54.5154 28.5728C54.5256 28.8306 54.5886 29.0835 54.7005 29.3161C55.0701 30.2799 53.9374 30.8747 53.7109 30.8509C53.5069 30.6639 53.3539 30.4282 53.2663 30.166C53.1787 29.9038 53.1594 29.6236 53.2102 29.3518C53.3175 28.281 54.6408 27.817 54.6408 27.817Z" fill="#81C341"/>
<path d="M60.7094 23.7361C60.5409 23.9351 60.4158 24.1669 60.3419 24.4168C60.268 24.6667 60.2469 24.9292 60.2801 25.1876C60.2801 26.2227 59.0879 26.3774 58.8613 26.3774C58.7256 26.1357 58.6543 25.8633 58.6543 25.5862C58.6543 25.3091 58.7256 25.0367 58.8613 24.795C59.3025 23.7718 60.7094 23.7361 60.7094 23.7361Z" fill="#81C341"/>
<path d="M59.4457 35.3602C59.29 35.1511 59.1799 34.9119 59.1224 34.6578C59.0649 34.4037 59.0613 34.1404 59.1118 33.8849C59.2191 32.8616 57.9195 32.5761 57.7526 32.6951C57.6031 32.9289 57.5159 33.1971 57.4992 33.474C57.4825 33.7509 57.5369 34.0274 57.6573 34.2775C58.003 35.2412 59.4457 35.3602 59.4457 35.3602Z" fill="#81C341"/>
<path d="M55.8093 35.61C55.6828 35.5084 55.5785 35.3822 55.5026 35.2389C55.4268 35.0957 55.381 34.9386 55.3682 34.7771C55.2609 34.1346 54.462 34.1703 54.3428 34.2536C54.2905 34.42 54.2817 34.597 54.3171 34.7677C54.3526 34.9385 54.4312 35.0973 54.5455 35.2292C54.7089 35.391 54.9095 35.5103 55.1299 35.5767C55.3502 35.6431 55.5835 35.6545 55.8093 35.61V35.61Z" fill="#81C341"/>
<path d="M50.1461 27.6266C50.1461 27.6266 50.7661 27.5552 51.4576 28.4C52.1491 29.2447 53.2102 28.3048 53.2936 28.0549C53.2371 27.7675 53.1061 27.4997 52.9136 27.2784C52.7212 27.0572 52.4741 26.8901 52.1968 26.7938C51.1953 26.4131 50.1461 27.6266 50.1461 27.6266Z" fill="#81C341"/>
<path d="M53.4843 34.337C53.3189 34.0026 53.224 33.6379 53.2055 33.2654C53.1871 32.893 53.2454 32.5206 53.377 32.1716C53.7704 30.732 52.0655 30.03 51.7556 30.1014C51.488 30.3985 51.2997 30.758 51.208 31.1469C51.1164 31.5357 51.1242 31.9413 51.231 32.3263C51.529 33.8254 53.4843 34.337 53.4843 34.337Z" fill="#81C341"/>
<path d="M55.9642 9.63721C56.1523 10.0668 56.2494 10.5307 56.2494 10.9995C56.2494 11.4684 56.1523 11.9322 55.9642 12.3618C55.3323 14.1108 57.4069 15.1459 57.8003 15.0864C58.1656 14.7439 58.4365 14.3134 58.5868 13.8362C58.7371 13.359 58.7619 12.8513 58.6587 12.3618C58.3726 10.4582 55.9642 9.63721 55.9642 9.63721Z" fill="#81C341"/>
<path d="M60.3875 10.8151C60.4583 11.2195 60.445 11.634 60.3486 12.0331C60.2522 12.4322 60.0748 12.8072 59.8272 13.1351C58.9569 14.5033 60.5306 15.7764 60.8763 15.8121C61.2541 15.5862 61.5677 15.2675 61.7868 14.8863C62.006 14.5051 62.1236 14.0743 62.1283 13.6348C62.2833 11.9691 60.3875 10.8151 60.3875 10.8151Z" fill="#81C341"/>
<path d="M65.6691 10.9102C65.4559 11.2609 65.172 11.5636 64.8354 11.7991C64.4988 12.0347 64.1169 12.1979 63.7138 12.2784C62.1519 12.7424 62.5215 14.7294 62.7361 14.9792C63.1698 15.0606 63.6171 15.0288 64.0348 14.8871C64.4526 14.7454 64.8266 14.4985 65.1206 14.1702C66.3486 13.0161 65.6691 10.9102 65.6691 10.9102Z" fill="#81C341"/>
<path d="M68.5305 15.134C67.9056 15.2704 67.2522 15.1729 66.6944 14.8603C66.3105 14.7096 65.8834 14.7107 65.5002 14.8632C65.117 15.0157 64.8065 15.3083 64.6318 15.6813C64.8395 15.9376 65.1064 16.1397 65.4096 16.2703C65.7128 16.4009 66.0433 16.456 66.3725 16.4309C66.8087 16.3978 67.231 16.2633 67.6058 16.0381C67.9805 15.8129 68.2972 15.5033 68.5305 15.134V15.134Z" fill="#81C341"/>
<path d="M63.7377 19.9882C63.4076 19.912 63.0976 19.7665 62.8283 19.5614C62.5589 19.3562 62.3366 19.0961 62.1759 18.7985C61.4128 17.692 59.9345 18.4535 59.7914 18.7033C59.836 19.0579 59.9683 19.3957 60.1765 19.6865C60.3846 19.9773 60.662 20.2118 60.9836 20.369C61.4386 20.5368 61.9281 20.5898 62.4085 20.5234C62.889 20.457 63.3456 20.2731 63.7377 19.9882V19.9882Z" fill="#81C341"/>
<path d="M64.9299 16.7044C64.6711 16.6937 64.4174 16.629 64.1853 16.5142C63.9532 16.3994 63.7479 16.2372 63.5827 16.0381C62.8554 15.3123 61.8539 16.0382 61.7823 16.3118C61.874 16.5764 62.0315 16.8134 62.24 17.0007C62.4485 17.188 62.7013 17.3194 62.9746 17.3826C63.9642 17.7038 64.9299 16.7044 64.9299 16.7044Z" fill="#81C341"/>
<path d="M59.3026 15.1697C59.3274 15.4276 59.4046 15.6778 59.5297 15.9049C59.6547 16.132 59.8249 16.3312 60.0298 16.4903C60.781 17.1804 60.0299 18.2155 59.8272 18.2869C59.5604 18.2149 59.3169 18.0752 59.1205 17.8812C58.9241 17.6873 58.7814 17.4458 58.7065 17.1804C58.6326 16.8222 58.6482 16.4513 58.7522 16.1006C58.8562 15.7499 59.0453 15.4301 59.3026 15.1697Z" fill="#81C341"/>
<path d="M62.903 8.87573C62.8423 9.12639 62.8343 9.38686 62.8795 9.64077C62.9246 9.89467 63.022 10.1365 63.1654 10.351C63.6661 11.2553 62.6288 11.9929 62.4023 11.9929C62.1737 11.8394 61.9888 11.6293 61.8655 11.3833C61.7422 11.1373 61.6848 10.8637 61.6989 10.589C61.6631 9.53011 62.903 8.87573 62.903 8.87573Z" fill="#81C341"/>
<path d="M66.9329 19.786C66.7022 19.6632 66.4994 19.4942 66.3373 19.2894C66.1752 19.0847 66.0573 18.8486 65.991 18.5962C65.6215 17.6325 64.3815 17.9419 64.2384 18.0965C64.2078 18.3718 64.2476 18.6504 64.3539 18.9062C64.4602 19.1621 64.6296 19.387 64.8465 19.5599C65.1489 19.7656 65.4975 19.8938 65.8614 19.9333C66.2253 19.9727 66.5932 19.9221 66.9329 19.786V19.786Z" fill="#81C341"/>
<path d="M62.772 22.118C62.6143 22.0831 62.4653 22.0165 62.3341 21.9225C62.2029 21.8284 62.0923 21.7087 62.0089 21.5706C61.6274 21.059 60.9359 21.4398 60.8167 21.5706C60.8449 21.7418 60.9167 21.9028 61.0253 22.0382C61.1339 22.1736 61.2755 22.279 61.4366 22.344C61.6598 22.4249 61.9001 22.4466 62.1342 22.407C62.3683 22.3673 62.588 22.2678 62.772 22.118V22.118Z" fill="#81C341"/>
<path d="M55.2131 17.0138C55.4572 16.9069 55.7236 16.8609 55.9894 16.8796C56.2552 16.8982 56.5125 16.981 56.7392 17.1209C57.7169 17.573 58.2534 16.2523 58.2176 15.9311C58.0396 15.7001 57.8036 15.5201 57.5336 15.4094C57.2635 15.2987 56.9689 15.2611 56.6796 15.3005C55.6185 15.467 55.2131 17.0138 55.2131 17.0138Z" fill="#81C341"/>
<path d="M60.161 22.0228C59.8616 21.7978 59.6119 21.5138 59.4272 21.1883C59.2426 20.8629 59.1271 20.5029 59.0879 20.131C58.8137 18.6795 56.9776 18.8104 56.7034 19.0126C56.5973 19.3949 56.5886 19.7976 56.6781 20.1841C56.7676 20.5706 56.9526 20.9287 57.2162 21.2257C57.6038 21.5894 58.0752 21.8524 58.5887 21.9914C59.1023 22.1304 59.6423 22.1412 60.161 22.0228Z" fill="#81C341"/>
<path d="M61.8301 23.7003C62.3348 24.4378 62.5275 25.3442 62.3665 26.2226C62.3566 26.5087 62.4056 26.7937 62.5104 27.0601C62.6152 27.3265 62.7736 27.5686 62.9758 27.7715C63.1781 27.9744 63.4198 28.1339 63.6862 28.2399C63.9526 28.3459 64.2378 28.3963 64.5245 28.388C64.7661 27.9857 64.9064 27.5309 64.9334 27.0626C64.9604 26.5943 64.8733 26.1265 64.6795 25.6991C64.4066 25.1573 64.0036 24.6912 63.5065 24.3425C63.0093 23.9937 62.4334 23.7731 61.8301 23.7003V23.7003Z" fill="#81C341"/>
<path d="M66.5514 24.1287C66.6864 24.8964 66.5153 25.6862 66.0746 26.3297C65.9676 26.5573 65.9074 26.8039 65.8975 27.0551C65.8877 27.3063 65.9285 27.5568 66.0175 27.792C66.1064 28.0271 66.2417 28.2421 66.4153 28.4242C66.5889 28.6063 66.7974 28.7518 67.0284 28.852C67.3706 28.6303 67.65 28.3245 67.84 27.9641C68.0299 27.6038 68.124 27.2008 68.1133 26.7938C68.0839 26.2576 67.9269 25.7362 67.6553 25.2728C67.3837 24.8093 67.0052 24.4171 66.5514 24.1287V24.1287Z" fill="#81C341"/>
<path d="M71.833 24.9854C71.6547 25.3126 71.4099 25.599 71.1143 25.8264C70.8187 26.0538 70.4787 26.2172 70.1162 26.306C68.7451 26.7581 69.0671 28.6856 69.2817 28.8759C69.6681 28.9444 70.0658 28.9076 70.4329 28.7694C70.8001 28.6312 71.1232 28.3967 71.3681 28.0907C71.6777 27.6427 71.8805 27.13 71.9611 26.5918C72.0417 26.0536 71.9979 25.5041 71.833 24.9854V24.9854Z" fill="#81C341"/>
<path d="M66.6588 22.0584C66.1024 22.1895 65.5168 22.0999 65.0254 21.8086C64.854 21.7414 64.671 21.7088 64.487 21.7126C64.3029 21.7163 64.1214 21.7564 63.9529 21.8305C63.7844 21.9046 63.6323 22.0112 63.5054 22.1443C63.3784 22.2773 63.2791 22.4342 63.2131 22.6057C63.3907 22.8405 63.6247 23.0268 63.8935 23.1474C64.1624 23.2681 64.4573 23.3191 64.7511 23.2958C65.1441 23.2536 65.5217 23.1196 65.8531 22.9046C66.1846 22.6896 66.4606 22.3997 66.6588 22.0584Z" fill="#81C341"/>
<path d="M70.2115 33.6112C69.9133 33.5331 69.635 33.3931 69.3946 33.2004C69.1543 33.0077 68.9573 32.7666 68.8166 32.4928C68.6945 32.3339 68.5386 32.2039 68.3601 32.1122C68.1816 32.0205 67.985 31.9694 67.7843 31.9626C67.5837 31.9558 67.384 31.9934 67.1997 32.0727C67.0154 32.1521 66.851 32.2712 66.7183 32.4215C66.7546 32.7525 66.8743 33.069 67.066 33.3415C67.2578 33.614 67.5154 33.8336 67.8151 33.9801C68.8881 34.6106 70.2115 33.6112 70.2115 33.6112Z" fill="#81C341"/>
<path d="M71.2369 30.4939C71.0052 30.4826 70.7788 30.4215 70.573 30.3147C70.3672 30.2079 70.1869 30.058 70.0446 29.8752C69.4008 29.1971 68.5186 29.9467 68.459 30.1489C68.5369 30.3874 68.6721 30.6032 68.853 30.7774C69.0338 30.9517 69.2547 31.079 69.4962 31.1483C70.3785 31.4457 71.2369 30.4939 71.2369 30.4939Z" fill="#81C341"/>
<path d="M66.2532 29.0781C66.2722 29.3185 66.339 29.5527 66.4495 29.7672C66.5601 29.9817 66.7122 30.1721 66.8971 30.3274C67.0031 30.4485 67.0833 30.5898 67.1331 30.7427C67.1828 30.8956 67.201 31.057 67.1865 31.2171C67.1721 31.3772 67.1252 31.5328 67.0488 31.6743C66.9724 31.8159 66.8681 31.9405 66.7421 32.0407C66.4982 31.9646 66.278 31.8273 66.1026 31.6419C65.9272 31.4565 65.8025 31.2291 65.7405 30.9817C65.6728 30.6465 65.6838 30.3002 65.7728 29.9699C65.8617 29.6396 66.0262 29.3343 66.2532 29.0781Z" fill="#81C341"/>
<path d="M69.377 23.0579C69.2763 23.5406 69.366 24.0434 69.6274 24.4618C69.6892 24.6084 69.721 24.7659 69.7207 24.9249C69.7205 25.084 69.6883 25.2414 69.6261 25.3878C69.5638 25.5342 69.4728 25.6667 69.3583 25.7774C69.2439 25.8881 69.1084 25.9748 68.9598 26.0323C68.754 25.878 68.5889 25.6761 68.4788 25.444C68.3688 25.2118 68.3169 24.9564 68.3279 24.6998C68.3593 24.3625 68.471 24.0377 68.6534 23.7522C68.8359 23.4666 69.0839 23.2286 69.377 23.0579V23.0579Z" fill="#81C341"/>
<path d="M62.9866 34.7771C62.7783 34.6617 62.5959 34.5051 62.4503 34.3169C62.3048 34.1287 62.1992 33.9128 62.1401 33.6825C62.0788 33.5413 61.9872 33.4153 61.8717 33.3135C61.7561 33.2117 61.6195 33.1365 61.4715 33.0933C61.3235 33.0502 61.1678 33.0401 61.0155 33.0638C60.8632 33.0875 60.7179 33.1444 60.5901 33.2304C60.5679 33.4865 60.6072 33.7442 60.7046 33.9822C60.8021 34.2201 60.955 34.4314 61.1505 34.5987C61.4131 34.7886 61.7216 34.9052 62.0443 34.9366C62.367 34.968 62.6923 34.9129 62.9866 34.7771V34.7771Z" fill="#81C341"/>
<path d="M69.377 35.6339C69.2336 35.6021 69.0987 35.54 68.9815 35.4517C68.8642 35.3635 68.7673 35.2511 68.6974 35.1223C68.3635 34.6344 67.7436 35.0152 67.6959 35.1223C67.7196 35.2807 67.7821 35.4308 67.8777 35.5595C67.9734 35.6881 68.0993 35.7913 68.2444 35.8599C68.7332 36.1455 69.377 35.6339 69.377 35.6339Z" fill="#81C341"/>
<path d="M62.6527 30.8628C62.6527 30.8628 63.1177 30.5297 64 30.958C64.8822 31.3863 65.3352 30.1251 65.2995 29.8752C65.1472 29.6606 64.9389 29.4916 64.6972 29.3867C64.4554 29.2819 64.1895 29.2451 63.9284 29.2804C62.9984 29.3874 62.6527 30.8628 62.6527 30.8628Z" fill="#81C341"/>
<path d="M67.0522 35.5625C66.7819 35.3462 66.5581 35.0778 66.3942 34.7731C66.2303 34.4685 66.1297 34.1341 66.0984 33.7898C66.0454 33.5734 65.9459 33.371 65.8067 33.1969C65.6674 33.0228 65.4918 32.8809 65.2922 32.7813C65.0925 32.6817 64.8735 32.6266 64.6504 32.6199C64.4272 32.6133 64.2054 32.6552 64.0001 32.7427C63.9095 33.1047 63.9055 33.4827 63.9884 33.8465C64.0712 34.2102 64.2385 34.5495 64.4769 34.8368C64.8057 35.1711 65.2162 35.4139 65.6679 35.5412C66.1196 35.6685 66.5968 35.6758 67.0522 35.5625Z" fill="#81C341"/>
<path d="M64.6439 36.312C64.2306 36.5345 63.7754 36.6684 63.3073 36.7053C62.8392 36.7422 62.3686 36.6812 61.9255 36.5262C60.1133 36.0622 59.2788 38.2156 59.3742 38.6083C59.7512 38.9382 60.2068 39.1661 60.6973 39.2703C61.1878 39.3744 61.6969 39.3513 62.1759 39.2032C64.0597 38.7867 64.6439 36.312 64.6439 36.312Z" fill="#81C341"/>
<path d="M63.8809 40.8212C63.4816 40.9355 63.0626 40.9638 62.6515 40.9044C62.2404 40.8449 61.8467 40.6989 61.4964 40.4762C60.0418 39.7504 58.9212 41.428 58.9331 41.7849C59.1922 42.1368 59.538 42.4159 59.9369 42.5952C60.3359 42.7745 60.7745 42.8478 61.2102 42.8081C62.9152 42.8081 63.8809 40.8212 63.8809 40.8212Z" fill="#81C341"/>
<path d="M64.2981 46.0682C63.9272 45.8919 63.5976 45.6398 63.3306 45.3282C63.0636 45.0167 62.8651 44.6527 62.7481 44.2597C62.1281 42.7606 60.1848 43.2841 59.9583 43.5458C59.9188 43.9824 59.9922 44.4217 60.1718 44.8217C60.3513 45.2217 60.6309 45.569 60.9836 45.8303C62.2474 46.9248 64.2981 46.0682 64.2981 46.0682Z" fill="#81C341"/>
<path d="M60.3875 49.3282C60.1978 48.7168 60.236 48.0577 60.4949 47.4721C60.61 47.0761 60.5691 46.651 60.3808 46.284C60.1924 45.9169 59.8707 45.6354 59.4814 45.4971C59.2449 45.7265 59.0681 46.0101 58.9663 46.3232C58.8645 46.6363 58.8408 46.9694 58.8972 47.2936C58.9722 47.7243 59.1457 48.1318 59.4042 48.4847C59.6627 48.8375 59.9991 49.1262 60.3875 49.3282V49.3282Z" fill="#81C341"/>
<path d="M55.6185 45.4733C55.6629 45.138 55.7783 44.816 55.9572 44.5288C56.1361 44.2416 56.3742 43.9957 56.6558 43.8075C56.8159 43.6489 56.9405 43.4583 57.0215 43.2482C57.1025 43.038 57.138 42.8131 57.1256 42.5883C57.1132 42.3635 57.0533 42.1439 56.9497 41.9439C56.8461 41.7439 56.7012 41.5681 56.5246 41.428C56.1716 41.508 55.8449 41.6769 55.5757 41.9184C55.3065 42.16 55.1037 42.4662 54.9866 42.8081C54.8619 43.2697 54.8544 43.7552 54.9647 44.2204C55.0751 44.6857 55.2997 45.1163 55.6185 45.4733V45.4733Z" fill="#81C341"/>
<path d="M58.4322 45.8898C58.4224 45.6307 58.466 45.3725 58.5604 45.131C58.6547 44.8895 58.7978 44.6699 58.9807 44.4858C59.6245 43.7006 58.7541 42.7726 58.5276 42.725C58.2745 42.8372 58.0542 43.0119 57.8873 43.2325C57.7205 43.4531 57.6126 43.7125 57.5738 43.9861C57.3473 45.0212 58.4322 45.8898 58.4322 45.8898Z" fill="#81C341"/>
<path d="M59.4337 40.1549C59.1888 40.2099 58.9573 40.3129 58.7526 40.4579C58.548 40.6029 58.3742 40.7871 58.2414 40.9997C57.6214 41.8206 56.5126 41.1662 56.4172 40.9997C56.4719 40.7321 56.5934 40.4827 56.7706 40.2747C56.9478 40.0667 57.1749 39.9068 57.4307 39.8099C57.7679 39.7039 58.1257 39.6799 58.4741 39.7399C58.8226 39.7999 59.1515 39.9422 59.4337 40.1549V40.1549Z" fill="#81C341"/>
<path d="M66.0627 43.1294C65.8045 43.0947 65.542 43.1138 65.2916 43.1855C65.0412 43.2572 64.8085 43.3798 64.6081 43.5458C63.7616 44.1169 62.927 43.1652 62.8912 42.9391C63.0265 42.6976 63.2212 42.4943 63.4569 42.3486C63.6926 42.2029 63.9615 42.1195 64.2385 42.1062C65.2877 41.9635 66.0627 43.1294 66.0627 43.1294Z" fill="#81C341"/>
<path d="M55.6185 48.174C55.7152 47.9336 55.8603 47.7156 56.0449 47.5335C56.2295 47.3513 56.4496 47.2089 56.6916 47.1151C57.6096 46.663 57.1923 45.4613 57.0135 45.3304C56.7377 45.3256 56.4654 45.3922 56.223 45.5235C55.9807 45.6549 55.7766 45.8466 55.6305 46.08C55.4564 46.4013 55.3643 46.7604 55.3622 47.1256C55.3601 47.4908 55.4482 47.8508 55.6185 48.174Z" fill="#81C341"/>
<path d="M53.4486 45.2353C53.4676 45.0761 53.5185 44.9224 53.5984 44.7834C53.6783 44.6443 53.7855 44.5229 53.9136 44.4262C53.9978 44.348 54.0632 44.2518 54.1048 44.1448C54.1465 44.0378 54.1633 43.9227 54.1541 43.8083C54.145 43.6939 54.11 43.583 54.0518 43.484C53.9937 43.385 53.9138 43.3003 53.8182 43.2365C53.652 43.2813 53.4995 43.3668 53.3746 43.4852C53.2497 43.6036 53.1564 43.7512 53.1029 43.9146C53.0397 44.1457 53.0383 44.3892 53.099 44.621C53.1596 44.8527 53.2802 45.0646 53.4486 45.2353V45.2353Z" fill="#81C341"/>
<path d="M57.2161 36.2644C57.3393 36.4994 57.4037 36.7607 57.4037 37.0259C57.4037 37.2911 57.3393 37.5524 57.2161 37.7874C56.8584 38.8106 58.2175 39.2151 58.4798 39.1556C58.6945 38.9562 58.8527 38.7037 58.9385 38.4239C59.0243 38.144 59.0347 37.8465 58.9686 37.5613C58.8017 36.5262 57.2161 36.2644 57.2161 36.2644Z" fill="#81C341"/>
<path d="M53.2936 42.6178C53.4921 42.3084 53.7522 42.0432 54.0578 41.8385C54.3634 41.6338 54.708 41.4941 55.0701 41.428C56.5008 41.0116 56.2027 39.2031 55.9761 38.977C55.5843 38.902 55.1796 38.9294 54.8015 39.0566C54.4233 39.1837 54.0846 39.4063 53.8182 39.7028C53.5001 40.1096 53.2861 40.5876 53.1947 41.0955C53.1033 41.6034 53.1372 42.1259 53.2936 42.6178V42.6178Z" fill="#81C341"/>
<path d="M42.6229 4.53308C42.8838 4.92652 43.0608 5.36933 43.1429 5.83396C43.2249 6.2986 43.2103 6.77515 43.0998 7.2339C42.8137 9.08995 45.0551 9.70863 45.4843 9.61345C45.7806 9.20578 45.9659 8.72847 46.0223 8.22804C46.0788 7.72762 46.0043 7.22112 45.8062 6.75796C45.1624 4.89001 42.6229 4.53308 42.6229 4.53308Z" fill="#81C341"/>
<path d="M47.2727 4.85425C47.4187 5.23715 47.4845 5.64587 47.466 6.05514C47.4475 6.4644 47.3452 6.86553 47.1654 7.2338C46.5812 8.75672 48.3576 9.70854 48.7153 9.61336C49.0454 9.32044 49.2945 8.94771 49.4386 8.53098C49.5826 8.11426 49.6169 7.66754 49.538 7.2338C49.3114 5.6395 47.2727 4.85425 47.2727 4.85425Z" fill="#81C341"/>
<path d="M52.4471 3.93811C52.3028 4.32481 52.0801 4.67767 51.7929 4.97452C51.5057 5.27137 51.1601 5.50584 50.7779 5.6633C49.3353 6.41286 50.0507 8.31653 50.3368 8.51879C50.7786 8.51402 51.2115 8.39533 51.5938 8.17437C51.9761 7.9534 52.2947 7.63758 52.5186 7.25756C53.4963 5.88932 52.4471 3.93811 52.4471 3.93811Z" fill="#81C341"/>
<path d="M56.0953 7.59082C55.4991 7.83314 54.8365 7.85841 54.2235 7.6622C53.8166 7.58255 53.3946 7.66152 53.0442 7.88282C52.6938 8.10411 52.4417 8.45091 52.3397 8.85198C52.5923 9.06715 52.8943 9.21668 53.2188 9.28725C53.5433 9.35783 53.8802 9.34729 54.1996 9.25654C54.6227 9.14298 55.0137 8.93361 55.3425 8.64473C55.6713 8.35584 55.9289 7.99519 56.0953 7.59082V7.59082Z" fill="#81C341"/>
<path d="M52.6974 12.6592C52.3564 12.6431 52.0225 12.5565 51.7167 12.4049C51.4109 12.2534 51.14 12.0402 50.921 11.7788C49.9672 10.827 48.6438 11.8621 48.5365 12.1357C48.6494 12.4817 48.8488 12.7931 49.1158 13.0408C49.3828 13.2886 49.7086 13.4644 50.0626 13.5516C51.4098 13.9799 52.6974 12.6592 52.6974 12.6592Z" fill="#81C341"/>
<path d="M52.8405 9.80372C52.5814 9.83889 52.3178 9.82119 52.0657 9.75166C51.8136 9.68212 51.5783 9.56224 51.3741 9.39924C50.5156 8.82815 49.6811 9.79182 49.6572 10.0179C49.794 10.2572 49.9893 10.458 50.2249 10.6016C50.4605 10.7451 50.7287 10.8267 51.0045 10.8388C52.0417 10.9697 52.8405 9.80372 52.8405 9.80372Z" fill="#81C341"/>
<path d="M46.9866 9.36353C47.0549 9.61836 47.1761 9.85604 47.3425 10.061C47.5089 10.266 47.7167 10.4337 47.9523 10.5533C48.0954 10.6532 48.2147 10.7833 48.3018 10.9343C48.3889 11.0854 48.4418 11.2537 48.4566 11.4273C48.4714 11.601 48.4477 11.7757 48.3874 11.9392C48.327 12.1028 48.2314 12.2511 48.1073 12.3737C47.8298 12.3516 47.5626 12.2592 47.331 12.1051C47.0993 11.951 46.911 11.7404 46.7839 11.4933C46.6378 11.1494 46.5798 10.7746 46.6152 10.4028C46.6506 10.0309 46.7782 9.67379 46.9866 9.36353V9.36353Z" fill="#81C341"/>
<path d="M49.3234 2.46289C49.3135 2.72191 49.3571 2.98017 49.4515 3.22168C49.5458 3.46319 49.6889 3.68279 49.8718 3.86682C50.5395 4.65207 49.6572 5.59198 49.4426 5.63957C49.187 5.5277 48.9635 5.35368 48.7927 5.13335C48.6219 4.91303 48.5092 4.65344 48.465 4.37841C48.2265 3.34331 49.3234 2.46289 49.3234 2.46289Z" fill="#81C341"/>
<path d="M55.4038 12.457C55.1474 12.3875 54.9086 12.2646 54.7031 12.0964C54.4976 11.9283 54.3301 11.7187 54.2116 11.4813C53.6632 10.6128 52.4948 11.1482 52.3875 11.3386C52.4104 11.6137 52.5035 11.8784 52.6579 12.1075C52.8124 12.3365 53.023 12.5224 53.2697 12.6473C53.6131 12.7959 53.9882 12.8564 54.361 12.8231C54.7338 12.7899 55.0923 12.664 55.4038 12.457V12.457Z" fill="#81C341"/>
<path d="M52.6736 14.8484C52.5092 14.8464 52.3471 14.8104 52.1973 14.7429C52.0475 14.6753 51.9133 14.5776 51.8032 14.4558C51.3382 14.0156 50.7183 14.5272 50.6825 14.67C50.7442 14.831 50.8452 14.9741 50.9764 15.0863C51.1075 15.1985 51.2647 15.2762 51.4336 15.3124C52.0417 15.5028 52.6736 14.8484 52.6736 14.8484Z" fill="#81C341"/>
<path d="M43.3025 11.9572C43.5231 11.8058 43.7774 11.7104 44.0434 11.6793C44.3093 11.6482 44.5788 11.6824 44.8286 11.7788C45.8897 12.0406 46.152 10.589 46.0208 10.3867C45.8011 10.19 45.5328 10.0555 45.2435 9.9969C44.9543 9.93833 44.6546 9.9579 44.3755 10.0536C43.4098 10.3511 43.3025 11.9572 43.3025 11.9572Z" fill="#81C341"/>
<path d="M50.0506 15.253C49.7143 15.0894 49.4156 14.8579 49.1735 14.5732C48.9313 14.2886 48.751 13.9569 48.6438 13.5992C48.0834 12.219 46.2593 12.695 46.0924 12.9329C46.0597 13.3329 46.1289 13.7346 46.2936 14.1008C46.4582 14.4669 46.713 14.7855 47.0342 15.0269C47.4796 15.3093 47.9879 15.4777 48.514 15.5171C49.0402 15.5565 49.568 15.4658 50.0506 15.253V15.253Z" fill="#81C341"/>
<path d="M33.1565 18.2988C33.6172 18.6784 33.9939 19.1494 34.2628 19.6818C34.5316 20.2143 34.6868 20.7967 34.7183 21.3922C35.0522 23.7717 37.9851 23.6647 38.4024 23.3672C38.6072 22.7658 38.6544 22.1222 38.5397 21.4974C38.4249 20.8727 38.1519 20.2877 37.7467 19.7979C36.3398 17.7515 33.1565 18.2988 33.1565 18.2988Z" fill="#81C341"/>
<path d="M38.8197 16.9662C39.1395 17.3763 39.3704 17.8482 39.4976 18.352C39.6249 18.8559 39.6457 19.3807 39.5589 19.8931C39.4158 21.9514 41.9434 22.4511 42.3368 22.2726C42.6227 21.7977 42.7826 21.2578 42.8014 20.7041C42.8202 20.1503 42.6972 19.6009 42.4442 19.1078C41.6334 17.1089 38.8197 16.9662 38.8197 16.9662Z" fill="#81C341"/>
<path d="M44.7928 13.9442C44.7627 14.4626 44.6253 14.9691 44.3894 15.4319C44.1534 15.8947 43.8239 16.3036 43.4217 16.633C41.9433 18.0846 43.5052 20.1072 43.9344 20.2024C44.4532 20.0351 44.9216 19.7405 45.2965 19.3455C45.6715 18.9505 45.941 18.4679 46.0804 17.9418C46.7958 15.9192 44.7928 13.9442 44.7928 13.9442Z" fill="#81C341"/>
<path d="M51.5529 15.9786C50.9284 16.4978 50.136 16.7727 49.3234 16.752C48.8018 16.809 48.3216 17.0621 47.9805 17.46C47.6393 17.8579 47.463 18.3705 47.4873 18.8936C47.871 19.0548 48.2879 19.1216 48.7028 19.0884C49.1178 19.0553 49.5187 18.9232 49.8718 18.7033C50.3452 18.411 50.7436 18.0124 51.0354 17.5394C51.3273 17.0664 51.5045 16.532 51.5529 15.9786V15.9786Z" fill="#81C341"/>
<path d="M48.298 24.3904C47.8804 24.4975 47.4449 24.5158 47.0197 24.444C46.5945 24.3723 46.1893 24.2122 45.8301 23.974C44.3279 23.1769 43.1118 24.9139 43.0999 25.2828C43.3606 25.6696 43.7173 25.9825 44.1351 26.191C44.553 26.3995 45.0178 26.4965 45.4844 26.4725C47.2727 26.4487 48.298 24.3904 48.298 24.3904Z" fill="#81C341"/>
<path d="M48.465 19.8693C48.1641 20.0003 47.8394 20.068 47.5112 20.068C47.1829 20.068 46.8582 20.0003 46.5574 19.8693C45.3651 19.4886 44.6498 20.952 44.7094 21.2375C44.9603 21.4811 45.2697 21.6561 45.608 21.7457C45.9463 21.8353 46.302 21.8365 46.6408 21.7492C47.9404 21.5707 48.465 19.8693 48.465 19.8693Z" fill="#81C341"/>
<path d="M40.1908 22.4868C40.3692 22.7641 40.6032 23.0013 40.8783 23.1836C41.1533 23.3659 41.4632 23.4891 41.7884 23.5457C43.0403 23.8788 42.8138 25.4732 42.623 25.6873C42.2806 25.7588 41.9256 25.7416 41.5917 25.6374C41.2578 25.5333 40.9562 25.3457 40.7154 25.0924C40.4219 24.7336 40.2207 24.3086 40.1293 23.8545C40.0379 23.4004 40.059 22.9309 40.1908 22.4868V22.4868Z" fill="#81C341"/>
<path d="M36.6855 14.5272C36.7486 14.7964 36.8671 15.0496 37.0333 15.2708C37.1995 15.4919 37.4099 15.6762 37.6512 15.8121C38.5454 16.4308 37.9135 17.6326 37.6512 17.7396C37.3609 17.6979 37.0861 17.5832 36.8525 17.4062C36.6189 17.2293 36.4342 16.996 36.3159 16.7283C36.1924 16.3592 36.1616 15.9656 36.226 15.5819C36.2905 15.1981 36.4482 14.836 36.6855 14.5272Z" fill="#81C341"/>
<path d="M42.5038 13.4563C42.4244 13.7189 42.4003 13.9951 42.4332 14.2674C42.466 14.5398 42.555 14.8024 42.6945 15.0387C43.1595 16.0262 42.003 16.752 41.7646 16.7401C41.5353 16.5573 41.3561 16.3197 41.2435 16.0493C41.131 15.7789 41.0887 15.4845 41.1207 15.1934C41.1923 14.0631 42.5038 13.4563 42.5038 13.4563Z" fill="#81C341"/>
<path d="M51.4932 23.1531C51.164 23.1584 50.8373 23.0955 50.5336 22.9686C50.2299 22.8416 49.9558 22.6533 49.7287 22.4154C48.751 21.5469 47.5469 22.6177 47.4753 22.8913C47.6034 23.2167 47.8132 23.5037 48.0847 23.7246C48.3562 23.9455 48.6801 24.0928 49.0253 24.1525C50.3248 24.4975 51.4932 23.1531 51.4932 23.1531Z" fill="#81C341"/>
<path d="M49.0612 27.0555C48.8616 27.1106 48.6528 27.1242 48.4477 27.0956C48.2427 27.0669 48.0457 26.9965 47.8689 26.8889C47.1416 26.532 46.5813 27.3768 46.5932 27.5553C46.7284 27.738 46.9106 27.8808 47.1205 27.9687C47.3303 28.0567 47.5601 28.0865 47.7855 28.0549C48.5843 28.0549 49.0612 27.0555 49.0612 27.0555Z" fill="#81C341"/>
<path d="M36.6974 26.9721C36.6974 26.9721 37.0789 26.2702 38.4619 26.1988C39.845 26.1274 39.6542 24.3309 39.4515 24.0572C39.115 23.9032 38.7436 23.8408 38.3751 23.8763C38.0065 23.9118 37.6539 24.044 37.3532 24.2595C36.2324 24.9971 36.6974 26.9721 36.6974 26.9721Z" fill="#81C341"/>
<path d="M46.0805 28.4952C45.6128 28.4205 45.1658 28.2498 44.7677 27.9938C44.3695 27.7378 44.029 27.4021 43.7676 27.0079C42.5753 25.5445 40.6081 26.77 40.4412 27.1388C40.544 27.6333 40.7723 28.0931 41.1042 28.4743C41.4361 28.8555 41.8606 29.1454 42.3368 29.3161C44.0775 30.1133 46.0805 28.4952 46.0805 28.4952Z" fill="#81C341"/>
<path d="M26.1461 14.9674C26.7203 14.8056 27.3219 14.7643 27.913 14.8462C28.504 14.9281 29.0715 15.1314 29.5798 15.4433C31.6901 16.5022 33.3115 14.0513 33.2996 13.5516C32.9229 13.0385 32.4199 12.6309 31.8394 12.3683C31.2588 12.1057 30.6202 11.9969 29.9852 12.0524C27.553 12.0643 26.1461 14.9674 26.1461 14.9674Z" fill="#81C341"/>
<path d="M28.3159 9.58956C28.8348 9.56069 29.3539 9.63992 29.8404 9.82223C30.3269 10.0045 30.77 10.2859 31.1415 10.6485C32.7511 11.9453 34.5871 10.1725 34.7183 9.73233C34.4915 9.22498 34.1376 8.78448 33.6908 8.45316C33.2439 8.12183 32.7191 7.91089 32.1669 7.84062C30.0566 7.38851 28.3159 9.58956 28.3159 9.58956Z" fill="#81C341"/>
<path d="M29.222 2.97438C29.632 3.29327 29.971 3.69385 30.2173 4.15065C30.4636 4.60744 30.6119 5.11042 30.6528 5.62755C31.0104 7.66207 33.5618 7.5312 33.9195 7.26945C34.0843 6.73897 34.1107 6.1753 33.9959 5.63184C33.8811 5.08838 33.6291 4.58315 33.2638 4.16415C31.9881 2.46277 29.222 2.97438 29.222 2.97438Z" fill="#81C341"/>
<path d="M35.0045 0C35.072 0.808441 34.8479 1.61441 34.3726 2.27251C34.1196 2.7317 34.0528 3.27018 34.1859 3.77709C34.319 4.284 34.6418 4.72069 35.088 4.99708C35.4406 4.77215 35.7334 4.46522 35.941 4.10257C36.1487 3.73992 36.2651 3.33238 36.2802 2.91497C36.3079 2.36374 36.2071 1.81364 35.9857 1.30785C35.7644 0.80207 35.4285 0.354375 35.0045 0V0Z" fill="#81C341"/>
<path d="M39.8212 6.04407C39.6721 6.4464 39.4402 6.8131 39.1404 7.12049C38.8405 7.42788 38.4795 7.66914 38.0805 7.82873C36.5544 8.61399 37.2936 10.6009 37.5917 10.8032C38.0512 10.8005 38.5024 10.6812 38.9029 10.4564C39.3034 10.2315 39.6399 9.90869 39.8808 9.5182C40.9061 8.09046 39.8212 6.04407 39.8212 6.04407Z" fill="#81C341"/>
<path d="M36.4352 4.771C36.3804 5.10391 36.2554 5.42138 36.0684 5.7024C35.8813 5.98342 35.6365 6.22157 35.3502 6.40098C34.3249 7.21003 35.1714 8.59016 35.4217 8.69724C35.7656 8.62839 36.0862 8.47321 36.3533 8.24629C36.6203 8.01936 36.8249 7.72824 36.9478 7.40043C37.0886 6.95422 37.1155 6.47995 37.0259 6.02076C36.9364 5.56156 36.7333 5.13197 36.4352 4.771V4.771Z" fill="#81C341"/>
<path d="M33.6454 11.6122C33.9729 11.6206 34.2986 11.5615 34.6022 11.4387C34.9057 11.3159 35.1807 11.132 35.4099 10.8984C36.4114 10.0656 37.5917 11.1601 37.6633 11.4337C37.5214 11.7497 37.3015 12.0247 37.0242 12.2328C36.7469 12.4408 36.4211 12.5753 36.0775 12.6235C34.778 12.9805 33.6454 11.6122 33.6454 11.6122Z" fill="#81C341"/>
<path d="M26.2413 6.13929C26.5503 6.25183 26.8793 6.29934 27.2076 6.27886C27.5359 6.25839 27.8564 6.17033 28.1489 6.02027C29.3412 5.53246 30.1281 6.9483 30.1042 7.21005C29.874 7.47314 29.5797 7.67263 29.2498 7.78932C28.9199 7.90602 28.5654 7.93598 28.2205 7.87632C26.8852 7.79303 26.2413 6.13929 26.2413 6.13929Z" fill="#81C341"/>
<path d="M40.6199 2.72449C40.4355 2.99424 40.1974 3.22324 39.9205 3.39722C39.6436 3.57121 39.3338 3.6865 39.0104 3.73584C37.7466 4.04518 37.9373 5.65136 38.1162 5.86552C38.4591 5.94569 38.817 5.93637 39.1553 5.83843C39.4936 5.74049 39.8009 5.55726 40.0476 5.30636C40.3472 4.95548 40.5561 4.53662 40.6558 4.08651C40.7556 3.63641 40.7433 3.16873 40.6199 2.72449V2.72449Z" fill="#81C341"/>
<path d="M42.5037 6.92444C42.4384 7.11808 42.3337 7.29617 42.1962 7.44765C42.0588 7.59913 41.8915 7.72075 41.7049 7.80486C41.5935 7.88225 41.4994 7.98197 41.4287 8.09766C41.358 8.21334 41.3122 8.34248 41.2942 8.4768C41.2763 8.61112 41.2866 8.74766 41.3245 8.8778C41.3623 9.00793 41.4269 9.12878 41.5142 9.23261C41.733 9.2254 41.9464 9.16261 42.1342 9.05019C42.3219 8.93777 42.4779 8.77946 42.5872 8.59016C42.7123 8.32725 42.7702 8.03745 42.7556 7.74677C42.741 7.45609 42.6545 7.17357 42.5037 6.92444V6.92444Z" fill="#81C341"/>
<path d="M35.3503 17.0257C35.2515 16.7043 35.2335 16.3636 35.2979 16.0336C35.3624 15.7037 35.5073 15.3947 35.7199 15.134C36.4472 13.9442 34.8615 13.0994 34.5276 13.1113C34.2055 13.2954 33.9392 13.5627 33.7566 13.8851C33.5741 14.2076 33.4821 14.5733 33.4904 14.9436C33.4427 16.288 35.3503 17.0257 35.3503 17.0257Z" fill="#81C341"/>
<path d="M41.9195 10.2202C41.5917 10.5604 41.1968 10.829 40.7597 11.0092C40.3226 11.1894 39.8528 11.2773 39.38 11.2672C37.5082 11.3981 37.389 13.7181 37.6036 14.0751C38.0705 14.2692 38.5792 14.3416 39.0819 14.2854C39.5846 14.2292 40.0646 14.0463 40.4769 13.7538C42.1341 12.7663 41.9195 10.2202 41.9195 10.2202Z" fill="#81C341"/>
</g>
<defs>
<clipPath id="clip0">
<rect width="72" height="81" fill="white"/>
</clipPath>
</defs>
</svg>
