<svg width="58" height="73" viewBox="0 0 58 73" fill="none" xmlns="http://www.w3.org/2000/svg">
<g clip-path="url(#clip0)">
<path d="M0 38.2899C3.42135 39.1149 5.713 41.2923 9.39257 41.1706C13.2713 41.0916 17.0214 39.9888 20.1085 38.0194C21.335 37.2079 22.4325 36.2477 23.6751 35.4498C25.2819 34.2982 27.0817 33.3504 29.0169 32.6367" fill="#AED082"/>
<path d="M29.017 32.6367C26.1832 31.0308 23.0691 29.8035 19.7858 28.9987C17.4423 28.3949 14.9115 28.5692 12.7171 29.4855C10.8777 30.6347 9.24685 32.0013 7.87561 33.5428" fill="#AED082"/>
<path d="M16.6387 0.598267C16.8969 3.61419 15.2347 6.18384 16.6387 9.07804C18.0789 12.1338 20.6312 14.7317 23.9333 16.5029C25.2728 17.1926 26.7414 17.7336 28.0809 18.4368C29.9454 19.3102 31.6428 20.4135 33.1161 21.7097" fill="#AED082"/>
<path d="M33.1323 21.7225C33.9856 18.9102 34.3123 16.0039 34.1006 13.1075C33.9517 11.0484 32.8726 9.11402 31.0827 7.69781C29.3397 6.48062 25.0792 5.56095 23.0134 4.80359" fill="#AED082"/>
<path d="M57.7434 16.9621C55.3226 17.0973 53.2569 16.1506 50.9329 16.9621C48.4842 17.7564 46.3953 19.1758 44.9617 21.0194C44.3969 21.7767 43.9611 22.6017 43.3479 23.3456C42.6531 24.4014 41.7655 25.3597 40.7173 26.1857" fill="#AED082"/>
<path d="M40.7496 26.2127C43.0091 26.6983 45.3441 26.8898 47.673 26.7807C49.3398 26.7063 50.9098 26.1016 52.0627 25.0901C53.0414 23.6403 53.821 22.1023 54.3866 20.5054" fill="#AED082"/>
<path d="M34.9881 26.2128C35.8503 27.1277 36.5866 28.1213 37.1829 29.1746C37.7969 30.2265 38.2991 31.3217 38.6838 32.4475C39.4588 34.6866 39.802 37.0151 39.7005 39.3449C39.6653 40.4673 39.5141 41.5849 39.2487 42.6854C39.0159 43.7551 38.6868 44.8085 38.2642 45.8366C38.0383 46.337 37.8285 46.8509 37.5864 47.3242C37.3443 47.7976 37.0861 48.2979 36.7956 48.7442C36.5051 49.1905 36.2469 49.6774 35.9241 50.0967C35.6014 50.5159 35.3109 50.9758 34.9558 51.3815L33.0999 53.7077C32.4705 54.438 31.9864 55.2359 31.4861 56.0068C31.357 56.2097 31.1956 56.3856 31.0826 56.5884L30.7275 57.1969C30.5016 57.6027 30.2757 58.0084 30.0175 58.4142L29.4365 59.6719L29.1299 60.3076L28.8878 60.9703L28.6618 61.633L28.5327 61.9575L28.4359 62.2956L28.0808 63.6481L27.8549 65.0005L27.7419 66.4476C27.7419 66.9345 27.7419 67.4349 27.7419 67.9353C27.7419 68.4357 27.742 68.936 27.9195 69.45C28.0923 70.5057 28.3952 71.5437 28.8232 72.5471L28.5327 72.7229C27.6221 71.8171 26.882 70.8 26.3379 69.7069C26.0517 69.1635 25.7985 68.6084 25.5794 68.0435C25.3696 67.4755 25.2244 66.8939 25.0468 66.3124C24.8693 65.7309 24.8209 65.1493 24.7402 64.5677L24.6111 62.8231C24.6111 62.2551 24.6111 61.6871 24.7079 61.119C24.7079 60.9703 24.7079 60.8215 24.7079 60.6862L24.7886 60.2805L24.9338 59.442L25.0791 58.6171C25.0791 58.3466 25.2405 58.0896 25.3212 57.8326L25.8053 56.2503C26.0151 55.7499 26.2572 55.263 26.467 54.7626L26.8059 54.0323C26.9208 53.7903 27.0556 53.5553 27.2094 53.329C27.712 52.3934 28.2945 51.4895 28.9523 50.6241C29.5817 49.7856 30.2757 48.8931 30.8567 48.2033C31.1633 47.8382 31.4376 47.4595 31.712 47.0808C31.9864 46.7021 32.2607 46.3235 32.5351 45.9448C33.0515 45.1604 33.5195 44.3489 33.9552 43.5374C34.8335 41.8569 35.4726 40.0957 35.8596 38.29C36.2751 36.3722 36.3891 34.4171 36.1985 32.4745C36.0202 30.3629 35.5101 28.2802 34.6815 26.2804L34.9881 26.2128Z" fill="#4356B7"/>
</g>
<defs>
<clipPath id="clip0">
<rect width="57.7434" height="72.1793" fill="white" transform="translate(0 0.611084)"/>
</clipPath>
</defs>
</svg>
